<?xml version="1.0" encoding="UTF-8" standalone="no"?>
<svg width="120px" height="120px" viewBox="0 0 120 120" version="1.1" xmlns="http://www.w3.org/2000/svg" xmlns:xlink="http://www.w3.org/1999/xlink">
    <!-- Generator: sketchtool 49 (51002) - http://www.bohemiancoding.com/sketch -->
    <title>2DE574F9-C207-4BB8-B07B-1082F1DAB652</title>
    <desc>Created with sketchtool.</desc>
    <defs></defs>
    <g id="Page-1" stroke="none" stroke-width="1" fill="none" fill-rule="evenodd">
        <g id="how-to-play" transform="translate(-354.000000, -256.000000)">
            <g id="01-bet" transform="translate(354.000000, 256.000000)">
                <circle id="Oval-3" fill="#E50539" cx="60" cy="60" r="60"></circle>
                <g id="flaticon1540029097-svg" transform="translate(10.000000, 24.000000)" fill="#FFFFFF" fill-rule="nonzero">
                    <path d="M76.2747178,37.5792325 C76.2553047,37.4325056 76.2379233,37.341535 76.2133183,37.251693 C76.1893905,37.1647856 76.1600451,37.0819413 76.1268623,37 C76.0706546,36.8717833 76.041535,36.813544 76.0099323,36.7562077 C75.9119639,36.5880361 75.875395,36.538149 75.8383747,36.4887133 C75.7623025,36.3875847 75.7013544,36.3196388 75.6374718,36.2553047 C75.5444695,36.1665914 75.4869074,36.1164786 75.4268623,36.0693002 C75.3004515,35.9742664 75.2176072,35.9187359 75.1311512,35.8706546 L41.8749436,16.9670429 L61.0227991,4.90970655 L93.123702,23.1562077 L79.6042889,31.6693002 C78.5492099,32.3334086 78.2325056,33.7273138 78.8968397,34.782167 C79.5609481,35.837246 80.9546275,36.1539503 82.0097065,35.4896163 L98.7198646,24.9674944 C99.3916479,24.5446953 99.7918736,23.8 99.7738149,23.0063205 C99.7559819,22.2126411 99.3227991,21.4871332 98.6325056,21.0948081 L62.078781,0.316930023 C61.3557562,-0.0943566591 60.4647856,-0.0740406321 59.7604966,0.369074492 L36.2941309,15.1458239 C36.2909707,15.1477803 32.3774266,17.6121144 24.5534989,22.5388262 C24.5498871,22.5410835 16.7170805,27.4734387 1.05507901,37.3358916 C0.383295711,37.7586907 -0.0169300226,38.503386 0.00112866817,39.2970655 C0.0189616253,40.0907449 0.45214447,40.8162528 1.14243792,41.2085779 L37.6963883,61.986456 C38.0426637,62.1835214 38.4273138,62.2814898 38.8117381,62.2814898 C39.2300226,62.2814898 39.6476298,62.165237 40.014447,61.9343115 L56.724605,51.4119639 C57.779684,50.7478555 58.0963883,49.3539503 57.4320542,48.2990971 C56.7681716,47.2440181 55.3740406,46.927088 54.3191874,47.5916479 L38.7523702,57.3939052 L6.65146727,39.1469526 L25.7995485,27.0893905 L60.0365688,46.5503386 L60.0365688,55.6925508 C60.0365688,56.5146727 60.4832957,57.2715576 61.2029345,57.6688488 C61.5431151,57.8566591 61.9187359,57.9498871 62.2939052,57.9498871 C62.7124153,57.9498871 63.1300226,57.8336343 63.496614,57.6027088 L75.2379233,50.2092551 C75.8943567,49.7959368 76.2925508,49.0747178 76.2925508,48.2990971 L76.2925508,37.8435666 C76.2884876,37.7293454 76.2835214,37.6544018 76.2747178,37.5792325 Z M64.5512415,52.1604276 L64.5512415,45.237246 C64.5512415,44.4252822 64.1151242,43.6760722 63.4092551,43.2749436 L30.1336343,24.3604966 L37.5406321,19.6961625 L69.6413093,37.9428894 L66.8306998,39.7126411 C65.7756208,40.3767494 65.4589165,41.7706546 66.1232506,42.8255079 C66.5521445,43.5072235 67.285553,43.8803612 68.0356659,43.8803612 C68.4465011,43.8803612 68.862754,43.7681716 69.2361174,43.5329571 L71.7776524,41.9327314 L71.7776524,47.6098633 L64.5512415,52.1604276 Z" id="Shape"></path>
                    <path d="M96.3146727,30.176298 L79.6045147,40.6984199 C78.5494357,41.3625282 78.2327314,42.7564334 78.8970655,43.8112867 C79.3259594,44.4930023 80.0593679,44.86614 80.8094808,44.86614 C81.220316,44.86614 81.6365688,44.7539503 82.0099323,44.5187359 L98.7200903,33.996614 C99.7751693,33.3325056 100.091874,31.9386005 99.4275395,30.8837472 C98.7634312,29.8286682 97.369526,29.5117381 96.3146727,30.176298 Z" id="Shape"></path>
                    <path d="M54.3189616,56.6207675 L38.7521445,66.4230248 L3.3731377,46.3130926 C2.29006772,45.6972912 0.911286682,46.0756208 0.295259594,47.1600451 C-0.320767494,48.2437923 0.0582392777,49.6218962 1.14221219,50.2379233 L37.6961625,71.0158014 C38.0424379,71.2128668 38.427088,71.3108352 38.8115124,71.3108352 C39.2297968,71.3108352 39.6474041,71.1945824 40.0142212,70.9636569 L56.7243792,60.4413093 C57.7794582,59.7772009 58.0961625,58.3832957 57.4318284,57.3284424 C56.7679458,56.2731377 55.3738149,55.9562077 54.3189616,56.6207675 Z" id="Shape"></path>
                </g>
            </g>
        </g>
    </g>
</svg>