
<svg xmlns="http://www.w3.org/2000/svg" version="1.1" xmlns:xlink="http://www.w3.org/1999/xlink" preserveAspectRatio="none" x="0px" y="0px" width="2760px" height="2760px" viewBox="0 0 460 460">
<defs>
<g id="Layer0_0_MEMBER_0_FILL">
<path fill="#0C0C0C" stroke="none" d="
M 240 0
L 220 0 230 230 240 0 Z"/>
</g>

<g id="Layer0_0_MEMBER_1_FILL">
<path fill="#0C0C0C" stroke="none" d="
M 279.75 5.25
L 260.05 1.8 230 230 279.75 5.25 Z"/>
</g>

<g id="Layer0_0_MEMBER_2_FILL">
<path fill="#0C0C0C" stroke="none" d="
M 318.05 17.3
L 299.25 10.45 230 230 318.05 17.3 Z"/>
</g>

<g id="Layer0_0_MEMBER_3_FILL">
<path fill="#0C0C0C" stroke="none" d="
M 353.65 35.85
L 336.3 25.85 230 230 353.65 35.85 Z"/>
</g>

<g id="Layer0_0_MEMBER_4_FILL">
<path fill="#0C0C0C" stroke="none" d="
M 385.5 60.25
L 370.15 47.4 230 230 385.5 60.25 Z"/>
</g>

<g id="Layer0_0_MEMBER_5_FILL">
<path fill="#0C0C0C" stroke="none" d="
M 412.6 89.85
L 399.75 74.5 230 230 412.6 89.85 Z"/>
</g>

<g id="Layer0_0_MEMBER_6_FILL">
<path fill="#0C0C0C" stroke="none" d="
M 434.15 123.7
L 424.15 106.35 230 230 434.15 123.7 Z"/>
</g>

<g id="Layer0_0_MEMBER_7_FILL">
<path fill="#0C0C0C" stroke="none" d="
M 449.5 160.75
L 442.7 141.95 230 230 449.5 160.75 Z"/>
</g>

<g id="Layer0_0_MEMBER_8_FILL">
<path fill="#0C0C0C" stroke="none" d="
M 458.2 199.95
L 454.75 180.25 230 230 458.2 199.95 Z"/>
</g>

<g id="Layer0_0_MEMBER_9_FILL">
<path fill="#0C0C0C" stroke="none" d="
M 460 240
L 460 220 230 230 460 240 Z"/>
</g>

<g id="Layer0_0_MEMBER_10_FILL">
<path fill="#0C0C0C" stroke="none" d="
M 454.75 279.8
L 458.2 260.1 230 230 454.75 279.8 Z"/>
</g>

<g id="Layer0_0_MEMBER_11_FILL">
<path fill="#0C0C0C" stroke="none" d="
M 442.7 318.1
L 449.5 299.3 230 230 442.7 318.1 Z"/>
</g>

<g id="Layer0_0_MEMBER_12_FILL">
<path fill="#0C0C0C" stroke="none" d="
M 424.15 353.7
L 434.15 336.35 230 230 424.15 353.7 Z"/>
</g>

<g id="Layer0_0_MEMBER_13_FILL">
<path fill="#0C0C0C" stroke="none" d="
M 399.75 385.5
L 412.6 370.2 230 230 399.75 385.5 Z"/>
</g>

<g id="Layer0_0_MEMBER_14_FILL">
<path fill="#0C0C0C" stroke="none" d="
M 370.15 412.65
L 385.5 399.8 230 230 370.15 412.65 Z"/>
</g>

<g id="Layer0_0_MEMBER_15_FILL">
<path fill="#0C0C0C" stroke="none" d="
M 336.3 434.2
L 353.65 424.2 230 230 336.3 434.2 Z"/>
</g>

<g id="Layer0_0_MEMBER_16_FILL">
<path fill="#0C0C0C" stroke="none" d="
M 299.25 449.55
L 318.05 442.75 230 230 299.25 449.55 Z"/>
</g>

<g id="Layer0_0_MEMBER_17_FILL">
<path fill="#0C0C0C" stroke="none" d="
M 260.05 458.25
L 279.75 454.8 230 230 260.05 458.25 Z"/>
</g>

<g id="Layer0_0_MEMBER_18_FILL">
<path fill="#0C0C0C" stroke="none" d="
M 220 460
L 240 460 230 230 220 460 Z"/>
</g>

<g id="Layer0_0_MEMBER_19_FILL">
<path fill="#0C0C0C" stroke="none" d="
M 180.2 454.8
L 199.9 458.25 230 230 180.2 454.8 Z"/>
</g>

<g id="Layer0_0_MEMBER_20_FILL">
<path fill="#0C0C0C" stroke="none" d="
M 141.9 442.75
L 160.7 449.55 230 230 141.9 442.75 Z"/>
</g>

<g id="Layer0_0_MEMBER_21_FILL">
<path fill="#0C0C0C" stroke="none" d="
M 106.3 424.2
L 123.65 434.2 230 230 106.3 424.2 Z"/>
</g>

<g id="Layer0_0_MEMBER_22_FILL">
<path fill="#0C0C0C" stroke="none" d="
M 74.5 399.8
L 89.8 412.65 230 230 74.5 399.8 Z"/>
</g>

<g id="Layer0_0_MEMBER_23_FILL">
<path fill="#0C0C0C" stroke="none" d="
M 47.35 370.2
L 60.2 385.5 230 230 47.35 370.2 Z"/>
</g>

<g id="Layer0_0_MEMBER_24_FILL">
<path fill="#0C0C0C" stroke="none" d="
M 25.8 336.35
L 35.8 353.7 230 230 25.8 336.35 Z"/>
</g>

<g id="Layer0_0_MEMBER_25_FILL">
<path fill="#0C0C0C" stroke="none" d="
M 10.4 299.3
L 17.25 318.1 230 230 10.4 299.3 Z"/>
</g>

<g id="Layer0_0_MEMBER_26_FILL">
<path fill="#0C0C0C" stroke="none" d="
M 1.75 260.1
L 5.2 279.8 230 230 1.75 260.1 Z"/>
</g>

<g id="Layer0_0_MEMBER_27_FILL">
<path fill="#0C0C0C" stroke="none" d="
M 0 220
L 0 240 230 230 0 220 Z"/>
</g>

<g id="Layer0_0_MEMBER_28_FILL">
<path fill="#0C0C0C" stroke="none" d="
M 230 230
L 5.2 180.25 1.75 199.95 230 230 Z"/>
</g>

<g id="Layer0_0_MEMBER_29_FILL">
<path fill="#0C0C0C" stroke="none" d="
M 17.25 141.95
L 10.4 160.75 230 230 17.25 141.95 Z"/>
</g>

<g id="Layer0_0_MEMBER_30_FILL">
<path fill="#0C0C0C" stroke="none" d="
M 35.8 106.35
L 25.8 123.7 230 230 35.8 106.35 Z"/>
</g>

<g id="Layer0_0_MEMBER_31_FILL">
<path fill="#0C0C0C" stroke="none" d="
M 60.2 74.5
L 47.35 89.85 230 230 60.2 74.5 Z"/>
</g>

<g id="Layer0_0_MEMBER_32_FILL">
<path fill="#0C0C0C" stroke="none" d="
M 89.8 47.4
L 74.5 60.25 230 230 89.8 47.4 Z"/>
</g>

<g id="Layer0_0_MEMBER_33_FILL">
<path fill="#0C0C0C" stroke="none" d="
M 123.65 25.85
L 106.3 35.85 230 230 123.65 25.85 Z"/>
</g>

<g id="Layer0_0_MEMBER_34_FILL">
<path fill="#0C0C0C" stroke="none" d="
M 160.7 10.45
L 141.9 17.3 230 230 160.7 10.45 Z"/>
</g>

<g id="Layer0_0_MEMBER_35_FILL">
<path fill="#0C0C0C" stroke="none" d="
M 199.9 1.8
L 180.2 5.25 230 230 199.9 1.8 Z"/>
</g>
</defs>

<g transform="matrix( 1, 0, 0, 1, 0,0) ">
<use xlink:href="#Layer0_0_MEMBER_0_FILL"/>
</g>

<g transform="matrix( 1, 0, 0, 1, 0,0) ">
<use xlink:href="#Layer0_0_MEMBER_1_FILL"/>
</g>

<g transform="matrix( 1, 0, 0, 1, 0,0) ">
<use xlink:href="#Layer0_0_MEMBER_2_FILL"/>
</g>

<g transform="matrix( 1, 0, 0, 1, 0,0) ">
<use xlink:href="#Layer0_0_MEMBER_3_FILL"/>
</g>

<g transform="matrix( 1, 0, 0, 1, 0,0) ">
<use xlink:href="#Layer0_0_MEMBER_4_FILL"/>
</g>

<g transform="matrix( 1, 0, 0, 1, 0,0) ">
<use xlink:href="#Layer0_0_MEMBER_5_FILL"/>
</g>

<g transform="matrix( 1, 0, 0, 1, 0,0) ">
<use xlink:href="#Layer0_0_MEMBER_6_FILL"/>
</g>

<g transform="matrix( 1, 0, 0, 1, 0,0) ">
<use xlink:href="#Layer0_0_MEMBER_7_FILL"/>
</g>

<g transform="matrix( 1, 0, 0, 1, 0,0) ">
<use xlink:href="#Layer0_0_MEMBER_8_FILL"/>
</g>

<g transform="matrix( 1, 0, 0, 1, 0,0) ">
<use xlink:href="#Layer0_0_MEMBER_9_FILL"/>
</g>

<g transform="matrix( 1, 0, 0, 1, 0,0) ">
<use xlink:href="#Layer0_0_MEMBER_10_FILL"/>
</g>

<g transform="matrix( 1, 0, 0, 1, 0,0) ">
<use xlink:href="#Layer0_0_MEMBER_11_FILL"/>
</g>

<g transform="matrix( 1, 0, 0, 1, 0,0) ">
<use xlink:href="#Layer0_0_MEMBER_12_FILL"/>
</g>

<g transform="matrix( 1, 0, 0, 1, 0,0) ">
<use xlink:href="#Layer0_0_MEMBER_13_FILL"/>
</g>

<g transform="matrix( 1, 0, 0, 1, 0,0) ">
<use xlink:href="#Layer0_0_MEMBER_14_FILL"/>
</g>

<g transform="matrix( 1, 0, 0, 1, 0,0) ">
<use xlink:href="#Layer0_0_MEMBER_15_FILL"/>
</g>

<g transform="matrix( 1, 0, 0, 1, 0,0) ">
<use xlink:href="#Layer0_0_MEMBER_16_FILL"/>
</g>

<g transform="matrix( 1, 0, 0, 1, 0,0) ">
<use xlink:href="#Layer0_0_MEMBER_17_FILL"/>
</g>

<g transform="matrix( 1, 0, 0, 1, 0,0) ">
<use xlink:href="#Layer0_0_MEMBER_18_FILL"/>
</g>

<g transform="matrix( 1, 0, 0, 1, 0,0) ">
<use xlink:href="#Layer0_0_MEMBER_19_FILL"/>
</g>

<g transform="matrix( 1, 0, 0, 1, 0,0) ">
<use xlink:href="#Layer0_0_MEMBER_20_FILL"/>
</g>

<g transform="matrix( 1, 0, 0, 1, 0,0) ">
<use xlink:href="#Layer0_0_MEMBER_21_FILL"/>
</g>

<g transform="matrix( 1, 0, 0, 1, 0,0) ">
<use xlink:href="#Layer0_0_MEMBER_22_FILL"/>
</g>

<g transform="matrix( 1, 0, 0, 1, 0,0) ">
<use xlink:href="#Layer0_0_MEMBER_23_FILL"/>
</g>

<g transform="matrix( 1, 0, 0, 1, 0,0) ">
<use xlink:href="#Layer0_0_MEMBER_24_FILL"/>
</g>

<g transform="matrix( 1, 0, 0, 1, 0,0) ">
<use xlink:href="#Layer0_0_MEMBER_25_FILL"/>
</g>

<g transform="matrix( 1, 0, 0, 1, 0,0) ">
<use xlink:href="#Layer0_0_MEMBER_26_FILL"/>
</g>

<g transform="matrix( 1, 0, 0, 1, 0,0) ">
<use xlink:href="#Layer0_0_MEMBER_27_FILL"/>
</g>

<g transform="matrix( 1, 0, 0, 1, 0,0) ">
<use xlink:href="#Layer0_0_MEMBER_28_FILL"/>
</g>

<g transform="matrix( 1, 0, 0, 1, 0,0) ">
<use xlink:href="#Layer0_0_MEMBER_29_FILL"/>
</g>

<g transform="matrix( 1, 0, 0, 1, 0,0) ">
<use xlink:href="#Layer0_0_MEMBER_30_FILL"/>
</g>

<g transform="matrix( 1, 0, 0, 1, 0,0) ">
<use xlink:href="#Layer0_0_MEMBER_31_FILL"/>
</g>

<g transform="matrix( 1, 0, 0, 1, 0,0) ">
<use xlink:href="#Layer0_0_MEMBER_32_FILL"/>
</g>

<g transform="matrix( 1, 0, 0, 1, 0,0) ">
<use xlink:href="#Layer0_0_MEMBER_33_FILL"/>
</g>

<g transform="matrix( 1, 0, 0, 1, 0,0) ">
<use xlink:href="#Layer0_0_MEMBER_34_FILL"/>
</g>

<g transform="matrix( 1, 0, 0, 1, 0,0) ">
<use xlink:href="#Layer0_0_MEMBER_35_FILL"/>
</g>
</svg>
