<?xml version="1.0" encoding="UTF-8" standalone="no"?>
<svg width="108px" height="28px" viewBox="0 0 108 28" version="1.1" xmlns="http://www.w3.org/2000/svg" xmlns:xlink="http://www.w3.org/1999/xlink">
    <!-- Generator: Sketch 49 (51002) - http://www.bohemiancoding.com/sketch -->
    <title>Aviator-text</title>
    <desc>Created with Sketch.</desc>
    <defs></defs>
    <g id="Symbols" stroke="none" stroke-width="1" fill="none" fill-rule="evenodd">
        <g id="header" transform="translate(-48.000000, -12.000000)" fill="#E50539">
            <g id="Aviator-text" transform="translate(48.000000, 12.000000)">
                <path d="M35.8316259,8.46081696 L32.6511471,21.1003182 C32.3861297,22.1108319 31.7898404,22.9804878 30.8579701,23.7052459 C29.9260998,24.430004 28.9406334,24.794403 27.9091122,24.794403 L32.0257706,8.46081696 L26.9360349,8.46081696 L26.4100399,10.9372758 L22.330818,27.2708618 L27.2796958,27.2708618 C29.6942095,27.2708618 31.9886035,26.3764279 34.1669177,24.5916 C36.3452319,22.8067721 37.7284938,20.7068319 38.324783,18.2923182 L40.1634763,10.9372758 L40.7845436,8.46081696 L35.8316259,8.46081696 Z" id="Fill-1"></path>
                <path d="M49.5521237,0.741321696 C49.1378993,0.248453865 48.5871262,0.000134663342 47.8995352,0.000134663342 C47.2081736,0.000134663342 46.5784878,0.248453865 46.0029367,0.741321696 C45.4314254,1.23418953 45.0877646,1.8264389 44.9757247,2.5137606 C44.855605,3.2304389 45.004812,3.83076808 45.4190364,4.32363591 C45.8289516,4.81650374 46.3797247,5.06509227 47.0673157,5.06509227 C47.7589466,5.06509227 48.392403,4.81219451 48.9682234,4.30720698 C49.5397347,3.8016808 49.8877047,3.20539152 49.999206,2.5137606 C50.1112459,1.8264389 49.9620389,1.23418953 49.5521237,0.741321696 M44.9094703,22.9473067 C44.9180888,22.8977506 44.9345177,22.8355362 44.9592958,22.7609327 C44.9840738,22.6863292 45.0007721,22.640813 45.004812,22.6117257 L48.5456499,8.46076309 L40.3416898,8.46076309 L39.7163132,10.9372219 L43.0002135,10.9372219 L40.0518943,22.6117257 C40.010418,22.7154165 39.9772908,22.8603142 39.9441636,23.0590773 C39.7327421,24.3389177 40.0599741,25.3534713 40.9212808,26.1073167 C41.7828569,26.8568529 43.0624279,27.2336409 44.7648419,27.2336409 L45.5017197,27.2336409 L46.1311362,24.757182 C45.1456698,24.6122843 44.7354853,24.0076459 44.9094703,22.9473067" id="Fill-3"></path>
                <path d="M58.5553377,21.9865915 C58.3565746,22.7485167 57.9175721,23.4029805 57.2385995,23.9454045 C56.5593576,24.4880978 55.8345995,24.7571551 55.072405,24.7571551 C53.6436269,24.7571551 53.0432978,24.0695641 53.2668389,22.6863022 C53.2711481,22.6658334 53.2875771,22.603619 53.3166643,22.5042374 C53.3454823,22.4048559 53.3621805,22.3302524 53.3702603,22.2806963 L55.7432978,12.7842374 C56.0664898,11.5544918 56.7454623,10.937195 57.7810234,10.937195 L61.3302105,10.937195 L58.5553377,21.9865915 Z M63.1645945,23.3905915 C63.1729436,23.3407661 63.1896419,23.29121 63.21038,23.2413845 C63.2311182,23.1918284 63.2435072,23.1460429 63.251587,23.0964868 L66.9085047,8.46073616 L58.3732728,8.46073616 C56.5965247,8.46073616 54.9442055,8.96195312 53.4157766,9.96007781 C51.8835771,10.9579332 50.9352778,12.2086863 50.5665696,13.7080279 L48.5043352,21.9865915 C48.458819,22.1107511 48.4216519,22.2680379 48.3922953,22.4670703 C48.1647142,23.8460229 48.5662803,24.9850055 49.6015721,25.8834793 C50.6368638,26.7822224 51.9913077,27.233614 53.6686743,27.233614 L54.4432579,27.233614 C55.8965446,27.233614 57.2466793,26.7286264 58.4974324,25.7178434 C59.122809,26.7286264 60.2949187,27.233614 62.0178015,27.233614 L63.7568439,27.233614 L64.3824898,24.7571551 C63.4298813,24.7073297 63.024006,24.2518983 63.1645945,23.3905915 Z" id="Fill-5"></path>
                <path d="M87.1846564,13.3020988 L87.118402,13.7079741 L85.0602075,21.9865377 C84.8407062,22.8728918 84.4803471,23.5561736 83.9834394,24.0366524 C83.4865317,24.5168618 82.9688858,24.7571012 82.4264618,24.7571012 C81.933594,24.7571012 81.5565367,24.5376 81.2958284,24.0902484 C81.0348509,23.647206 80.9645566,23.0840439 81.0760579,22.392413 C81.084407,22.3425875 81.1011052,22.2763332 81.1301925,22.18961 C81.1549706,22.1023481 81.1716688,22.0363631 81.1797486,21.9865377 L83.2379431,13.7079741 C83.4450554,12.8962234 83.7887162,12.2377197 84.2651551,11.7324628 C84.7413247,11.2274753 85.2753995,10.9745776 85.8676489,10.9745776 C86.3605167,10.9745776 86.7332648,11.1776499 86.9858933,11.5835252 C87.2385217,11.9934404 87.3090853,12.5649516 87.1846564,13.3020988 M90.9533446,9.81081696 C89.9304419,8.91234314 88.5846165,8.46068229 86.9072499,8.46068229 L86.1326663,8.46068229 C84.3066314,8.46068229 82.6416539,8.96620848 81.1342324,9.97672219 C79.6265416,10.9872359 78.6909007,12.2336798 78.3265017,13.7079741 L76.2265616,21.9865377 C76.1853546,22.1106973 76.1438783,22.2682534 76.114791,22.4670165 C75.8829007,23.8707471 76.2844668,25.0140389 77.3240678,25.9044329 C78.3596289,26.7905177 79.7302324,27.2338294 81.4280678,27.2338294 L82.1654843,27.2338294 C83.9670105,27.2338294 85.6236389,26.7202234 87.1474893,25.7013606 C88.671609,24.6784579 89.6115591,23.4400938 89.9759581,21.9865377 L92.071589,13.7079741 L92.1502324,13.2318045 C92.3740429,11.8485426 91.9762474,10.7098294 90.9533446,9.81081696" id="Fill-7"></path>
                <path d="M106.1978,8.46081696 C104.20182,8.46081696 102.474628,8.99085187 101.021072,10.051191 L101.39382,8.46081696 L96.4656808,8.46081696 L91.7360349,27.2336948 L96.6892219,27.2336948 L99.2610224,16.963191 C99.5882544,15.7040888 100.23006,14.5279392 101.186708,13.4347421 C102.143357,12.3372359 103.220125,11.5793506 104.425362,11.1610863 L103.837152,13.6003781 L106.537421,13.6003781 L107.858469,8.46081696 L106.1978,8.46081696 Z" id="Fill-9"></path>
                <path d="M12.664387,13.9475132 L12.6724668,13.8917626 L14.9436988,5.02902943 C15.11122,4.28784239 15.4618833,3.67404688 15.9956888,3.19572269 C16.5300329,2.71793716 17.1354793,2.47850574 17.7969456,2.47850574 C18.4188209,2.47850574 18.8729057,2.68588728 19.1758983,3.10819152 C19.470811,3.52268529 19.5742324,4.05649077 19.470811,4.69452569 L19.4150603,5.02902943 L17.1435591,13.8917626 L17.1276688,13.9475132 L12.664387,13.9475132 Z M23.0014145,1.40254564 C21.8697037,0.470136658 20.3474693,0.00016159601 18.4266314,0.00016159601 C16.3307312,0.00016159601 14.489614,0.526156608 12.8876589,1.57033616 C11.2857037,2.61424638 10.2733047,4.00100948 9.8429207,5.73035611 L7.78661147,13.8917626 C6.04918504,13.8917626 4.43915012,13.8995731 3.18785835,13.8995731 C1.4189207,13.8995731 0.000107730673,15.3423561 0.000107730673,17.1118324 L6.97378354,17.1118324 L4.43133965,27.2333985 L9.34089576,27.2333985 L11.8914195,17.1118324 L16.3625117,17.1118324 L14.7764469,23.391992 C14.7287761,23.5115731 14.6967262,23.6710145 14.6649456,23.8703162 C14.489614,24.930386 14.6967262,25.7588349 15.2943621,26.3489297 C15.8841875,26.9384858 16.784816,27.2333985 17.9881676,27.2333985 L19.9491352,27.2333985 L20.5785516,24.754785 C19.8691451,24.7071142 19.5742324,24.324401 19.6940828,23.6149945 L24.1810653,5.73035611 C24.1888758,5.67487481 24.2050354,5.57899451 24.2448958,5.43544339 C24.2847561,5.2840818 24.3006464,5.1882015 24.3084569,5.1327202 C24.5635092,3.58651571 24.1250454,2.34303441 23.0014145,1.40254564 Z" id="Fill-12"></path>
                <path d="M76.0941067,8.46081696 L77.216391,4.10418853 L72.263204,4.10418853 L71.1783561,8.46081696 L68.7474135,8.46081696 L68.1177277,10.9372758 L70.5529796,10.9372758 L67.5960419,22.649216 C67.5876928,22.6990414 67.5672239,22.7860339 67.5338274,22.9101935 C67.5007002,23.0343531 67.4842713,23.1173057 67.4759222,23.1709017 C67.26881,24.4256948 67.5130893,25.4157397 68.2047202,26.1445377 C68.9006603,26.8692958 69.9483411,27.2336948 71.3520718,27.2336948 L73.0916529,27.2336948 L73.7251092,24.7197995 C72.7065157,24.6247272 72.2839421,24.0448668 72.4581965,22.984797 C72.4662763,22.9349716 72.4827052,22.8727571 72.5074833,22.7984229 C72.5284908,22.7235501 72.545189,22.6780339 72.5492289,22.649216 L75.5018574,10.9372758 L77.6098773,10.9372758 L78.2395631,8.46081696 L76.0941067,8.46081696 Z" id="Fill-14"></path>
            </g>
        </g>
    </g>
</svg>