<svg width="517" height="50" viewBox="0 0 517 50" fill="none" xmlns="http://www.w3.org/2000/svg">
<path d="M146.987 -152.91C98.4279 -187.833 43.8518 -204.649 -16.0001 -204.205V-247H-5.02013C-1.3034 -246.66 2.41332 -246.287 6.13005 -245.974C66.8989 -240.844 120.322 -218.261 165.922 -177.863C211.302 -137.674 240.103 -87.6089 252.746 -28.3208C256.282 -11.7458 257.923 5.06516 258.407 21.9968C258.433 22.5255 258.4 23.0556 258.308 23.5769C244.275 -49.8227 207.778 -109.188 146.987 -152.91ZM490.178 -247C490.645 -188.293 474.4 -134.525 440.598 -86.5719C396.815 -24.4417 336.837 12.8781 262.255 27.1322C262.875 27.2218 263.501 27.2549 264.127 27.231C278.95 26.7701 293.707 25.5137 308.283 22.7265C370.32 10.8755 422.596 -18.4943 464.369 -65.8217C504.474 -111.273 526.878 -164.493 531.973 -224.9C532.286 -228.614 532.654 -232.318 533 -236.027V-247H490.178ZM366.713 -71.6539C341.229 -30.7239 307.075 1.09834 264.731 24.164C263.875 24.6303 263.084 25.2613 262.288 25.81C263.337 25.5027 264.407 25.2613 265.434 24.8827C338.22 -1.85893 390.963 -50.3714 423.661 -120.655C437.339 -150.056 445.364 -181.765 447.317 -214.13C448.004 -225.054 447.735 -236.043 447.905 -247H406.73C407.279 -240.548 408.119 -234.101 408.327 -227.632C410.139 -171.477 396.403 -119.382 366.713 -71.6539ZM108.079 -105.879C173.11 -81.6322 222.337 -39.0562 255.76 21.8487C256.138 22.4471 256.556 23.0191 257.012 23.5605C256.699 22.5125 256.463 21.4481 256.062 20.4221C229.974 -50.6732 182.84 -102.739 114.662 -135.776C83.9737 -150.644 50.6642 -159.349 16.6214 -161.398C5.7787 -162.073 -5.12444 -161.799 -16.0001 -161.947V-120.797C-10.3619 -121.346 -4.73465 -122.081 0.914555 -122.328C37.7195 -123.947 73.5527 -118.751 108.079 -105.879ZM335.739 120.366C304.77 96.8888 280.29 67.755 261.712 33.6229C261.245 32.7615 260.663 31.9769 260.136 31.121C260.331 32.0988 260.576 33.0657 260.872 34.0179C287.099 105.596 334.591 157.891 403.348 190.902C433.757 205.485 466.71 214.026 500.378 216.052C511.221 216.727 522.124 216.453 533 216.601V175.451C526.45 176 519.906 176.867 513.346 177.053C447.521 178.926 388.318 160.03 335.739 120.366ZM239.01 -125.406C258.643 -80.7946 265.571 -34.1421 260.333 14.321C259.966 17.7173 259.823 21.1354 259.576 24.548C261.108 18.6445 262.82 12.7793 264.149 6.83185C283.82 -81.1951 265.379 -160.542 209.622 -231.286C205.329 -236.735 200.498 -241.76 195.897 -246.978H135.507C136.056 -246.528 136.605 -246.018 137.154 -245.623C182.908 -215.518 216.973 -175.466 239.01 -125.406ZM497.831 -51.8857C432.593 12.3075 354.542 39.1918 263.529 28.1857C262.75 28.194 261.976 28.299 261.223 28.4984C261.839 28.4969 262.453 28.5576 263.057 28.6794C293.777 38.1914 325.952 42.1344 358.061 40.322C410.117 37.3538 457.732 21.075 500.411 -8.88727C511.814 -16.8922 522.163 -26.395 533 -35.2229V-95.5755C532.513 -95.0549 532.058 -94.5052 531.638 -93.9295C521.778 -78.77 510.71 -64.5598 497.831 -51.8912V-51.8857ZM-14.4904 148.337C23.0576 92.0332 74.2518 54.1446 139.092 34.6708C173.855 24.3066 209.364 21.503 245.445 25.4753C248.843 25.8484 252.263 26.024 255.673 26.2544C249.057 24.5426 242.469 22.7046 235.821 21.1409C205.501 13.9295 174.15 12.0855 143.193 15.6927C82.2544 22.8253 29.468 47.5479 -15.3633 89.3448C-15.5609 89.5313 -15.786 89.6849 -16.0001 89.8605V150.213C-15.4951 149.599 -14.9351 149.006 -14.4904 148.337ZM333.883 -114.016C323.661 -61.8932 300.141 -16.541 263.693 22.1285C263.161 22.8192 262.703 23.564 262.326 24.3505C262.551 24.1969 262.782 24.0488 263.002 23.8842C311.511 -13.3369 344.235 -61.3153 361.174 -120.051C369.595 -149.454 373.071 -179.493 370.995 -210.031C370.15 -222.398 368.135 -234.683 366.653 -247H327.125C327.251 -246.451 327.355 -245.936 327.515 -245.414C340.268 -202.131 342.557 -158.315 333.883 -114.016ZM108.195 -49.5923C152.115 -42.5256 192.06 -25.8299 227.695 0.785599C237.265 7.91818 246.07 16.0987 255.228 23.7964C254.926 23.0555 254.559 22.3431 254.13 21.6676C243.255 7.30032 230.91 -5.8949 217.297 -17.7042C163.803 -63.7916 101.64 -86.1879 31.1096 -85.6173C15.2599 -85.4856 -0.419514 -83.5434 -16.0001 -80.7562V-41.2527C-15.4511 -41.3844 -14.9351 -41.4996 -14.4135 -41.6532C25.8611 -53.4987 66.7287 -56.2695 108.195 -49.5923ZM395.376 101.761C345.033 91.0456 301.157 67.8318 263.704 32.5201C263.013 31.9862 262.268 31.5265 261.481 31.1484C272.72 46.283 285.582 60.1424 299.84 72.479C353.378 118.528 415.596 140.902 486.165 140.266C501.926 140.123 517.518 138.192 533.016 135.416V95.9122C532.467 96.0384 531.951 96.1536 531.424 96.3072C486.522 109.502 441.147 111.483 395.376 101.761ZM-14.5233 40.8487C25.4805 15.3214 69.1699 0.979462 116.545 -2.17715C152.678 -4.69098 188.942 0.23143 223.095 12.2855C234.179 16.1865 244.874 21.1848 255.749 25.6783C254.898 25.0089 254.102 24.2902 253.191 23.6812C218.846 0.0888062 181.14 -15.142 139.932 -21.6381C87.0238 -29.9191 32.8473 -22.627 -15.9837 -0.651886V41.5949C-15.517 41.348 -15.0064 41.1395 -14.5233 40.8487ZM288.025 -114.532C290.534 -78.419 285.605 -42.1758 273.542 -8.04233C269.639 3.03511 264.643 13.723 260.141 24.5919C265.269 16.6199 270.819 8.88382 275.458 0.653931C304.824 -51.6059 315.689 -107.635 308.788 -167.088C305.566 -194.855 297.924 -221.46 286.499 -246.978H244.226C244.577 -246.347 244.896 -245.689 245.28 -245.08C270.6 -205.192 284.848 -161.676 288.025 -114.532ZM330.298 52.2608C306.186 47.7125 283.238 39.6417 261.217 28.8715C264.325 31.0661 267.355 33.4363 270.55 35.5048C308.261 59.8269 349.42 74.2566 394.141 78.4264C415.568 80.4289 437.156 79.9133 458.462 76.8902C484.195 73.2235 509.285 65.9672 533 55.3333V13.0865C527.894 16.1097 522.876 19.2864 517.677 22.1394C458.808 54.4226 396.359 64.7099 330.287 52.2279L330.298 52.2608ZM257.665 32.3719C257.77 31.6367 257.446 30.8357 257.325 30.0676C256.375 33.8423 255.48 37.6281 254.465 41.3864C246.828 69.571 243.699 98.3153 245.549 127.422C249.707 192.741 273.791 249.61 317.803 298.027H376.474C373.213 295.833 369.98 293.594 366.807 291.273C285.78 231.969 243.507 131.641 257.654 32.35L257.665 32.3719ZM230.073 121.584C233.549 90.2862 242.422 59.8265 256.298 31.5544C256.534 31.0661 256.743 30.5614 256.968 30.0621C256.178 31.0497 255.321 31.9824 254.613 33.0248C217.497 87.7115 201.759 147.973 207.399 213.808C209.449 237.128 214.562 260.076 222.606 282.061C224.539 287.394 226.691 292.651 228.837 298.022H270.561C250.983 266.801 237.863 231.976 231.978 195.604C227.95 171.127 227.305 146.214 230.062 121.562L230.073 121.584ZM354.147 195.346C302.327 152.402 271.105 97.1357 258.774 31.0881C259.23 85.0323 276.134 150.147 325.385 206.511C369.854 257.383 424.682 287.477 488.987 298.022H533.016V258.864C465.725 259.193 405.873 238.223 354.136 195.324L354.147 195.346ZM254.673 27.5657C238.277 27.6531 221.925 29.2973 205.84 32.4762C141.524 45.5233 88.1726 77.1755 46.4157 127.751C10.0554 171.803 -10.2466 222.592 -14.99 279.549C-15.2974 283.263 -15.6707 286.972 -16.0166 290.686V298.027H26.6736C27.5081 232.046 48.3317 173.366 90.6047 122.621C133.569 71.0524 188.733 39.894 254.673 27.5657ZM181.508 177.728C189.125 130.273 207.95 87.7481 237.984 50.154C243.391 43.378 249.315 37.0191 255.003 30.4626C250.517 33.8972 245.845 37.1124 241.574 40.7939C196.523 79.5951 166.987 127.888 152.966 185.673C145.61 215.852 143.586 247.083 146.987 277.957C147.717 284.613 148.7 291.246 149.639 298H188.925C177.504 258.965 174.97 217.87 181.508 177.728ZM165.373 104.554C188.865 73.5927 218.022 49.0896 252.181 30.5394C253.048 30.0676 253.855 29.4915 254.69 28.9648C253.977 29.0873 253.271 29.2504 252.576 29.4531C201.283 47.5862 158.697 77.9491 125.757 121.211C86.0388 173.366 67.1441 232.305 69.0729 298.027H109.699C109.309 293.386 108.87 288.733 108.711 284.075C106.438 217.555 125.131 157.571 165.373 104.554Z" fill="#DF3E3E"/>
</svg>
