<?xml version="1.0" encoding="UTF-8" standalone="no"?>
<svg width="32px" height="31px" viewBox="0 0 32 31" version="1.1" xmlns="http://www.w3.org/2000/svg" xmlns:xlink="http://www.w3.org/1999/xlink">
    <!-- Generator: sketchtool 49 (51002) - http://www.bohemiancoding.com/sketch -->
    <title>2992E5A9-C97E-448F-A074-58DF31E713F9</title>
    <desc>Created with sketchtool.</desc>
    <defs></defs>
    <g id="Page-1" stroke="none" stroke-width="1" fill="none" fill-rule="evenodd" opacity="0.200000003">
        <g id="Win" transform="translate(-857.000000, -318.000000)" fill="#000000" fill-rule="nonzero">
            <g id="Group-Copy" transform="translate(599.000000, 306.000000)">
                <g id="win-icon" transform="translate(150.000000, 5.000000)">
                    <g transform="translate(108.000000, 7.155556)" id="Shape">
                        <path d="M28.4360123,7.69504146 C28.2149488,6.99961929 27.6378216,6.50219726 26.9299374,6.39701647 L21.9898816,5.66328102 L19.7806606,1.08744653 C19.4641282,0.431783431 18.8230722,0.0243614626 18.1077626,0.0243614626 C18.1076919,0.0243614626 18.1076919,0.0243614626 18.1076212,0.0243614626 C17.3923116,0.0243614626 16.7513264,0.431711142 16.4345818,1.08744653 L14.2254315,5.66328102 L9.28537572,6.39701647 C8.57749152,6.50219726 8.00036435,6.999547 7.77930082,7.69504146 C7.558308,8.39046363 7.73920388,9.13966896 8.2514122,9.65003076 L11.8260506,13.2118645 L10.982247,18.2413861 C10.8613904,18.9621818 11.145817,19.6768329 11.7245707,20.1066645 C12.0515694,20.3495562 12.4341521,20.4728816 12.8192807,20.4728816 C13.1158708,20.4728816 13.4138752,20.3997972 13.6892499,20.2517489 L18.1076919,17.8771931 L22.5262047,20.2517489 C23.1593403,20.5920142 23.9121302,20.5364961 24.4908839,20.1066645 C25.0695668,19.6768329 25.3540641,18.9621095 25.2332076,18.2412415 L24.389404,13.2117923 L27.9639716,9.65003076 C28.4761092,9.13966896 28.6570758,8.39053592 28.4360123,7.69504146 Z M22.8088633,11.7540081 C22.3690699,12.1922253 22.1685145,12.8233101 22.2723988,13.4419611 L23.0505764,18.0801089 L18.9758224,15.8902519 C18.7040543,15.7441555 18.4058378,15.6712156 18.1076919,15.6712156 C17.8094754,15.6712156 17.5112588,15.7442277 17.23942,15.8903242 L13.1647367,18.0801812 L13.9429143,13.4422502 C14.0467986,12.8234546 13.8462432,12.1923699 13.4063791,11.7540804 L10.1098734,8.46933115 L14.6655785,7.79263189 C15.2734679,7.70227038 15.7986175,7.31227011 16.0703149,6.74928177 L18.1076919,2.52939934 L20.1451396,6.74928177 C20.416837,7.31227011 20.9420574,7.70227038 21.5498761,7.79263189 L26.1055812,8.46933115 L22.8088633,11.7540081 Z"></path>
                        <path d="M11.6586618,22.9419918 C11.4839891,22.3924492 11.0277892,21.9993405 10.4683414,21.9162079 L8.2019098,21.5795571 L7.18831298,19.4802062 C6.93804303,18.9619649 6.43142141,18.6399888 5.86596267,18.6399888 C5.30050392,18.6399888 4.79381159,18.9619649 4.54361236,19.4802062 L3.53008625,21.5795571 L1.26372534,21.9162079 C0.704206877,21.9993405 0.248006981,22.3923769 0.0732635393,22.942064 C-0.101479902,23.4916789 0.0415112911,24.0838721 0.446370135,24.4873181 L2.08638436,26.1214156 L1.69920495,28.4287425 C1.60352389,28.9983815 1.82833547,29.5633216 2.28566685,29.9030809 C2.74313966,30.2427679 3.33815841,30.2867197 3.8386983,30.0178039 L5.86589195,28.9283332 L7.8930856,30.0178039 C8.11075469,30.1347678 8.34631535,30.1925992 8.58067382,30.1925269 C8.88511352,30.1925269 9.18757314,30.0949365 9.44611705,29.9030086 C9.90351915,29.563177 10.12826,28.9983092 10.032579,28.4287425 L9.64539954,26.1213433 L11.2854138,24.4871735 C11.690414,24.0837998 11.8334052,23.4916789 11.6586618,22.9419918 Z M7.91819038,24.8100171 C7.57040072,25.156427 7.41178092,25.6552948 7.49395489,26.1443313 L7.71622063,27.4693202 L6.55213653,26.8437294 C6.33736687,26.7282835 6.10173549,26.6705967 5.8661041,26.6705967 C5.63047272,26.6705967 5.39477062,26.7282835 5.17993024,26.8437294 L4.01584615,27.4693202 L4.2381826,26.1445482 C4.32035657,25.6553671 4.16166605,25.156427 3.81415926,24.810234 L2.87241162,23.8718478 L4.17375878,23.6785465 C4.65421484,23.6072693 5.06932776,23.2989559 5.28416813,22.8539435 L5.86617482,21.6484487 L6.44832295,22.8542327 C6.66323404,23.2991004 7.07827624,23.607197 7.55852015,23.6785465 L8.85993802,23.8718478 L7.91819038,24.8100171 Z"></path>
                        <path d="M36.1343414,22.942064 C35.9595979,22.3923769 35.5034687,21.9993405 34.9439503,21.9162079 L32.6775186,21.5795571 L31.6639218,19.4802062 C31.4136519,18.9619649 30.9070303,18.6399888 30.3415715,18.6399888 C29.7761128,18.6399888 29.2694204,18.9619649 29.0192212,19.4802062 L28.0056244,21.5795571 L25.7392635,21.9162079 C25.179745,21.9993405 24.7235451,22.3923769 24.5488017,22.942064 C24.3740582,23.4916789 24.5170494,24.0838721 24.9219083,24.4873181 L26.5619225,26.1214156 L26.1747431,28.4287425 C26.079062,28.9983815 26.3038736,29.5633216 26.761205,29.9030809 C27.2186778,30.2427679 27.8135551,30.2867197 28.3142364,30.0178039 L30.3414301,28.9283332 L32.3686237,30.0178039 C32.5862928,30.1347678 32.8218535,30.1925992 33.0562119,30.1925269 C33.3606516,30.1925269 33.6631113,30.0949365 33.9216552,29.9030086 C34.3790573,29.563177 34.6037981,28.9983092 34.5081171,28.4287425 L34.1209377,26.1213433 L35.7609519,24.4871735 C36.1660229,24.0838721 36.3090141,23.4917512 36.1343414,22.942064 Z M32.3937992,24.8100171 C32.0460096,25.156427 31.8873898,25.6552948 31.9695637,26.1443313 L32.1918295,27.4693202 L31.0277454,26.8437294 C30.8129757,26.7282835 30.5773443,26.6705967 30.3417129,26.6705967 C30.1060816,26.6705967 29.8703795,26.7282835 29.6555391,26.8437294 L28.491455,27.4693202 L28.7137914,26.1445482 C28.7959654,25.6553671 28.6373456,25.156427 28.2897681,24.810234 L27.3480205,23.8718478 L28.6492262,23.6785465 C29.1295408,23.6072693 29.5446537,23.2991004 29.759777,22.8539435 L30.3417837,21.6484487 L30.9237196,22.8537989 C31.1384893,23.2988836 31.5536729,23.607197 32.0340583,23.6785465 L33.3355469,23.8718478 L32.3937992,24.8100171 Z"></path>
                    </g>
                </g>
            </g>
        </g>
    </g>
</svg>