<svg width="500" height="199" viewBox="0 0 500 199" fill="none" xmlns="http://www.w3.org/2000/svg">
<path d="M236.466 97.0016V155.202H218.003V11.4734H266.971C272.816 11.3513 278.627 12.388 284.07 14.5236C289.512 16.6592 294.478 19.8515 298.68 23.9162C302.924 27.7341 306.302 32.4163 308.587 37.6483C310.872 42.8802 312.01 48.5406 311.925 54.2489C312.047 59.9879 310.926 65.6852 308.64 70.9504C306.354 76.2157 302.956 80.9244 298.68 84.7538C290.117 92.919 279.547 96.9977 266.971 96.9901H236.466V97.0016ZM236.466 29.1685V79.3409H267.43C270.824 79.4415 274.202 78.8325 277.348 77.5529C280.494 76.2733 283.338 74.3512 285.698 71.9096C288.046 69.6268 289.913 66.8963 291.187 63.8796C292.462 60.8629 293.118 57.6213 293.118 54.3464C293.118 51.0716 292.462 47.8299 291.187 44.8132C289.913 41.7966 288.046 39.0661 285.698 36.7832C283.367 34.2902 280.533 32.321 277.384 31.0062C274.234 29.6915 270.841 29.0611 267.43 29.157H236.466V29.1685Z" fill="#5F6368"/>
<path d="M354.471 53.6525C368.118 53.6525 378.89 57.2993 386.788 64.5929C394.686 71.8865 398.631 81.8866 398.623 94.5931V155.201H380.962V141.554H380.16C372.514 152.793 362.346 158.412 349.655 158.412C338.821 158.412 329.758 155.201 322.464 148.779C318.964 145.832 316.166 142.14 314.273 137.974C312.38 133.808 311.441 129.272 311.524 124.697C311.524 114.521 315.369 106.428 323.061 100.419C330.752 94.4096 341.019 91.3974 353.864 91.3821C364.827 91.3821 373.856 93.389 380.951 97.4028V93.1826C380.972 90.0635 380.298 86.9788 378.979 84.1523C377.66 81.3258 375.729 78.8282 373.325 76.8407C368.442 72.4356 362.079 70.032 355.503 70.109C345.19 70.109 337.029 74.4592 331.019 83.1596L314.758 72.9187C323.703 60.0745 336.941 53.6525 354.471 53.6525ZM330.584 125.098C330.571 127.448 331.12 129.767 332.186 131.861C333.251 133.956 334.801 135.765 336.707 137.139C340.791 140.351 345.859 142.053 351.054 141.956C358.845 141.943 366.314 138.842 371.822 133.332C377.939 127.575 380.997 120.82 380.997 113.068C375.24 108.481 367.212 106.187 356.914 106.187C349.414 106.187 343.16 107.995 338.152 111.612C333.095 115.281 330.584 119.742 330.584 125.098V125.098Z" fill="#5F6368"/>
<path d="M500 56.8636L438.348 198.55H419.288L442.167 148.974L401.628 56.8636H421.697L450.997 127.506H451.399L479.897 56.8636H500Z" fill="#5F6368"/>
<path d="M161.855 84.4556C161.862 78.8289 161.387 73.2119 160.433 67.6665H82.5657V99.4672H127.165C126.252 104.546 124.32 109.388 121.486 113.7C118.652 118.013 114.974 121.707 110.674 124.559V145.201H137.291C152.876 130.832 161.855 109.582 161.855 84.4556Z" fill="#4285F4"/>
<path d="M82.5657 165.144C104.848 165.144 123.61 157.828 137.291 145.213L110.674 124.57C103.265 129.593 93.724 132.46 82.5657 132.46C61.0288 132.46 42.7488 117.942 36.2121 98.3776H8.79218V119.651C15.6646 133.326 26.2026 144.822 39.2298 152.855C52.257 160.889 67.2606 165.143 82.5657 165.144V165.144Z" fill="#34A853"/>
<path d="M36.2121 98.3776C32.7564 88.1257 32.7564 77.0237 36.2121 66.7719V45.4988H8.79217C3.01089 57.0029 0 69.6996 0 82.5747C0 95.4499 3.01089 108.147 8.79217 119.651L36.2121 98.3776Z" fill="#FBBC04"/>
<path d="M82.5657 32.6891C94.3408 32.4968 105.719 36.9458 114.24 45.0746L137.807 21.5079C122.863 7.47194 103.066 -0.234023 82.5657 0.00541733C67.2606 0.00611487 52.257 4.26066 39.2298 12.2941C26.2026 20.3275 15.6646 31.8236 8.79218 45.4989L36.2121 66.772C42.7488 47.2076 61.0288 32.6891 82.5657 32.6891Z" fill="#EA4335"/>
</svg>
