<svg id="Группа_1" data-name="Группа 1" xmlns="http://www.w3.org/2000/svg" width="1812.94" height="852.49" viewBox="0 0 1812.94 852.49">
  <defs>
    <style>
      .cls-1 {
        fill: #2c4699;
      }

      .cls-2 {
        fill: #656263;
      }

      .cls-3 {
        fill: #f26700;
      }

      .cls-4 {
        fill: #00895d;
      }

      .cls-5 {
        fill: #464243;
      }
    </style>
  </defs>
  <g>
    <path class="cls-1" d="M2003.1,1491.58c-.33-13-7.11-23.39-20.35-27.51a55.52,55.52,0,0,0-16.49-2.87q-34.24,0-68.47,0c-1,0-2,.09-3.48.17-10.87,50.14-21.72,100.16-32.64,150.52h31.82c4.3-17.56,7.23-35.53,12-52.93,14.12,0,27.6.15,41.09,0a49.38,49.38,0,0,0,31-11.33C1995.2,1533.19,2003.66,1514.37,2003.1,1491.58Zm-50.28,39.73a15.8,15.8,0,0,1-5.89,1.38c-11.39,0-22.78,0-34.17,0-.44,0-.88-.42-1.67-.82,3.1-14.68,5.57-29.61,9.69-44.34,12.8,0,25.2-.2,37.58.07,8.47.19,13.61,5.83,13.43,13.56C1971.54,1511.91,1964.8,1526.73,1952.82,1531.31Z" transform="translate(-427.96 -804.84)"/>
    <path class="cls-1" d="M2087.68,1590.89c4.29-19.89,9.39-39.61,13.13-59.59,2.74-14.62-2.59-25.79-19-30.54a77,77,0,0,0-42-.21c-12.66,3.49-23.21,10.41-29.82,22.56-2.37,4.34-3.22,9-5.82,14.24h27.45c2.81-2.06,2.37-4.43,3.27-6.26a19.09,19.09,0,0,1,14.91-10.86c4.06-.63,8.29-.25,12.44-.26,5.07,0,8.87,2,10.73,6.1.37,2.16-.61,3.24-.82,4.43-1.26,7-5.54,10.64-12.27,12-4.24.83-8.46,1.77-12.66,2.75-7.5,1.74-15.38.83-22.75,3.22-10.39,3.37-19.87,8.17-26,17.79-4.49,7-6.66,14.64-8.22,22.83a22.84,22.84,0,0,0,2.55,16.06,21,21,0,0,0,13.1,10.18,49.16,49.16,0,0,0,32.37-2.08c6.24-2.62,11.93-6.32,18.26-10.9-.48,4.18,1.24,6.76,1.8,9.53h31.51c.56-2.16.59-3.38-.26-4.56C2085.88,1602.18,2086.48,1596.42,2087.68,1590.89Zm-22.22-27.45c-3.06,18.46-12.15,29.1-32.53,30-4.77.21-8.49-1.6-11-5.62-.89-6.45-.76-12.43,4.68-17.11a20.41,20.41,0,0,1,9.37-5c3.75-.66,7.54-1.69,11.34-1.72a47.91,47.91,0,0,0,16.89-3.38A2.3,2.3,0,0,1,2065.46,1563.44Z" transform="translate(-427.96 -804.84)"/>
    <path class="cls-1" d="M2225.87,1500.38H2197l-40.44,78.83c-1.12-3.29-.48-6.54-1.24-9.42-2.12-8-1.6-16.31-2.42-24.42-.95-9.44-1.81-19-2.41-28.48-.35-5.44-.44-11.15-1.52-16.46h-32c-1.18,7.69,1.31,14.67,1.88,21.8.72,8.86,2.84,17.6,4.09,26.42,1.29,9.13,1.71,18.4,3.52,27.41,2.52,12.53,2.85,25.35,5.72,37.8a7.54,7.54,0,0,1-.27,3.82c-2.42,7.57-7.22,12.6-15.08,15-4.51,1.35-9.08,1-13.92,1.39-1.74,7.69-3.4,15-5.27,23.3,8-.12,14.59-.68,21.25-1.4,13.18-1.41,23.18-6.94,29.74-18.65,5.25-9.37,10.9-18.51,16.23-27.83,8.63-15.07,17.07-30.24,25.72-45.3,10.81-18.83,21.78-37.58,32.6-56.41C2224.49,1505.6,2226.43,1503.61,2225.87,1500.38Z" transform="translate(-427.96 -804.84)"/>
    <path class="cls-1" d="M1708.9,1494.94c2.27-.87,4.95-1.71,7.46-2.9,12.91-6.12,25.73-12.41,38.68-18.46,2.74-1.28,5.73-2.34,8.35-3.68,6.35-3.25,13.13-5.66,19.06-9.84,3.84-2.7,5.15-6.5,3.68-10-2.74-6.51-5.53-13.15-9.72-18.78a4,4,0,0,0-1.11.08c-3.74,1.61-7.66,2.91-11.14,5-3,1.74-5.94,1.67-9,1.46-3.77-.27-8.46-4.71-9-7.47V1423c4.76-7.69,13.72-8.19,20-13.25-4-7.51-5.31-16.66-13.59-21.6a12.08,12.08,0,0,0-8.14,1.1c-5.22,2.64-10.61,5-15.91,7.45-14.76,7-29.54,13.9-44.22,21-2.5,1.21-5.17,2-7.53,3.73-5.65,4.26-6.9,7.46-3.87,13.67,8,16.52,16.35,32.9,24.17,49.51C1699.64,1489.87,1702.89,1493.53,1708.9,1494.94Z" transform="translate(-427.96 -804.84)"/>
    <path class="cls-1" d="M1682,1506.85c-8-4.55-16.77-5.89-25.69-6.62-4.61-.37-9.16.51-13.75,1.12-13.64,1.84-25,7.6-33.5,18.35a27.14,27.14,0,0,0-6.14,16h16.59c-.34-2,1.14-3.23,1.84-4.88,3-7.12,8.51-11.86,15.92-13.23,8.88-1.65,18-1.84,26.73,1.29,2.86,1,5.68,2.59,6.94,5.19,1.61,4.92-1,9-1.25,13.31s-2.47,7.16-6.33,8.87c-5.95,2.63-12.34,3.08-18.7,3.56a137.18,137.18,0,0,0-32.23,6.07c-17.24,5.6-28.1,23.32-26.71,39.75.52,6.16,2.72,11.51,8.52,15.47,10.28,7,21.51,6.7,32.62,4.83,8.5-1.42,16.38-5.55,23.65-10.44,1.59-1.07,3.12-2.43,5.21-2.39,4.75,16.14,15.63,16,28.71,10.66l2.32-10.06c-3.22-2-7.22-1.41-10.81-4.72a17.53,17.53,0,0,1,0-3.69q7.56-34.24,15.21-68.48C1693.22,1517.61,1690.3,1511.57,1682,1506.85ZM1659.24,1583c-2.44,5.54-7.71,8.26-12.23,11.44-7,4.89-15.19,7-23.58,8a21.41,21.41,0,0,1-12.52-2.76c-4.42-2.33-7.38-8.16-6.48-12.83,1.71-9,7-15.1,15.45-18.33a55.41,55.41,0,0,1,11.76-3c11-1.62,22-2.88,33.54-6.43C1663.33,1567.59,1662.53,1575.59,1659.24,1583Z" transform="translate(-427.96 -804.84)"/>
    <path class="cls-1" d="M1779.4,1502c-16.89-4.1-32.91-1.88-47.6,8.1-11.57,7.87-17.1,18.67-17,32.55.07,7.31,3.1,12.64,9.82,16,7.81,3.92,16.21,5.86,24.52,8.21,6.57,1.85,13.61,2.14,19.62,5.89,4.2,2.62,6.69,7.33,5,11.69-1.91,5-4.48,9.61-9.64,12.51a32.23,32.23,0,0,1-10.74,3.7c-7.89,1.27-15.92,1.82-23.63-1.14-6.3-2.42-9.77-7.13-10.31-14-.16-2,.73-4.17-1.08-5.93h-15.39c-.3,1.08-.44,1.81-.7,2.51-4.88,13.32,3.12,28.3,16.79,32.09s26.67,3.27,40.13-.23c17-4.41,27.42-15.2,32.51-31.57,3-9.79-.66-19.37-9.26-24.46a48.6,48.6,0,0,0-17.1-6.28c-8.39-1.29-16.22-4.23-24.23-6.65-4.88-1.47-8.62-4.51-9.18-10.06,2.91-12.55,13.14-15.93,23.54-17.67,9.26-1.55,18.63-.46,24.15,7.64,1.43,3.63-.38,6.64,1.27,9h15.66C1802.94,1521.36,1794.81,1505.78,1779.4,1502Z" transform="translate(-427.96 -804.84)"/>
    <path class="cls-1" d="M1862.22,1519.89c1.25-5.6,2.43-10.88,3.77-16.9h-17.4c3.3-14.64,6.45-28.63,9.75-43.23-3.65,0-6.47-.19-9.26,0-3,.26-6.27-1.28-8.92,1.45-4.3,13.7-5.65,28.24-10.39,42.06h-14.42a105.16,105.16,0,0,0-3.8,16.77h14.26c-.16,2.83,0,4.7-.4,6.44-5.67,24.54-10.85,49.18-16,73.83a13.17,13.17,0,0,0,1.95,10.71,12.17,12.17,0,0,0,10.4,5.73c6.19,0,12.38,0,19.51,0,.63-5.83,3.57-10.71,2.64-16.74-5.62,1.22-10.91,2.44-15.71-2.87l16.56-77.31Z" transform="translate(-427.96 -804.84)"/>
    <path class="cls-1" d="M1593.42,1503.18h-17.58c1.34-6.57,2.22-12.34,3.73-18s5.82-8.56,12.1-8.79c2.31-.09,4.62,0,7.13,0a86.65,86.65,0,0,0,3.78-15.24c-6.93-.1-13.51-1.42-19.62.64-12.41,4.18-19.79,13.21-22.17,26.11a121.85,121.85,0,0,1-4,15.54h-14.2c-1.28,5.42-2.48,10.55-3.95,16.8h14.93c-6.61,30.84-13.08,61-19.62,91.48h18.17c6.66-30.83,13.24-61.3,19.87-92h17.55C1590.82,1514.32,1592,1509.19,1593.42,1503.18Z" transform="translate(-427.96 -804.84)"/>
    <path class="cls-1" d="M1740.68,1386.53c-2.18-2.29-3.63-4.09-5.36-5.57-1.92-1.63-2.15-4.86-5.5-5.48l-6.37,6c-2,.87-2.81-1.63-6.26-.53-2.21,2.41-5.47,6.13-8.89,9.68-3.25,3.36-6.9,6.35-10,9.87s-8.21,5.09-10.58,11.36c9.7-4.47,18.32-8,26.56-12.36C1722.79,1395,1732.07,1392.18,1740.68,1386.53Z" transform="translate(-427.96 -804.84)"/>
    <path class="cls-1" d="M1756.53,1434.2a8.67,8.67,0,0,0,5.17-.77c3.8-2,7.71-3.91,11.69-5.55,4.25-1.75,6.44-4.74,6.71-9.13a17.56,17.56,0,0,0-6.07-6.18c-7.74-.22-13.78,5.7-20.88,8.23C1749.48,1428.21,1749.56,1428.49,1756.53,1434.2Z" transform="translate(-427.96 -804.84)"/>
  </g>
  <path class="cls-2" d="M1723,1142.66H1555.22c-4.35,0-8.7-.06-13,0-4.89,0-7-2.74-5.84-7,5-18.9,10.2-37.72,15.53-56.52.75-2.67,3.54-3,6.11-3,4.35,0,8.7,0,13,0h298.33c4.35,0,8.71-.16,13.05,0,5.06.22,7.45-1.4,8.74-6.92,3.46-14.85,7.84-29.49,12.08-44.15,4.75-16.4,4.86-16.5-11.8-16.51q-137-.06-274.09-.07c-6.72,0-13.26.18-20-2.34-14.85-5.5-20.59-13.55-16.64-29,7-27.18,14.62-54.19,22.11-81.24,5-18.23,9.92-36.53,15.58-54.58,7.42-23.61,24.51-36.07,49.61-36.25,37.29-.26,74.58-.07,111.87-.07q117.46,0,234.94,0c15.82,0,17.12,1.69,12.68,16.91-4.1,14.06-9.23,27.86-12.6,42.08-1.55,6.53-4.4,7.66-10.09,7.57-15.53-.23-31.07-.08-46.61-.08H1695.22c-18.55,0-18.7,0-24,18.32-4.1,14.07-8.16,28.17-11.41,42.44-1.9,8.33-.45,9.65,8.23,9.69,28,.16,55.94.07,83.91.07h195.78c5,0,10-.15,14.91.16,13.55.84,21.41,9,22.1,22.21.47,8.81-2,17-4.32,25.29-10.87,38.14-21.36,76.39-32.76,114.37-8.38,27.95-23.67,38.51-53,38.52Q1808.8,1142.7,1723,1142.66Z" transform="translate(-427.96 -804.84)"/>
  <path class="cls-2" d="M979.33,1142.65c-8.69,0-17.39.06-26.09,0-4.94,0-5.88-2.07-4.47-7,10.17-35.8,20-71.71,29.93-107.56,2.94-10.58,6.28-21,9.14-31.65.76-2.86,1.61-6.35-1-8.64-.45-.39-4,2.23-5.74,3.81-19.91,17.59-39.91,35.08-59.59,52.92q-48.13,43.62-95.91,87.63c-10.34,9.46-12.26,9.53-19.11-2-17.87-30.06-35.48-60.29-53.11-90.5Q732.52,1003.84,711.8,968c-.93-1.6-1.93-3.37-4.11-3-2,.36-2.54,2.06-3.05,3.91q-11.16,40.59-22.46,81.15c-7.51,27-14.83,54.14-22.59,81.11-3.26,11.35-3.68,11.36-15.22,11.45-15.54.13-31.07,0-46.6,0-5.59,0-9,.22-6.66-8.11,21.38-75.1,42.09-150.39,63-225.62q12-43.19,24.21-86.34c.83-2.93,1.86-5.81,3-8.65a51.21,51.21,0,0,1,2.43-4.86c1.37,1.11,3.16,2,4,3.37q9.38,14.77,18.43,29.75,56.26,92.92,112.41,185.93c7,11.54,5.84,15.89,21.59,3.27s31.27-26.1,46.88-39.19q58.15-48.78,116.3-97.58c28.32-23.9,56.42-48.06,84.61-72.12.94-.8,1.74-1.8,2.74-2.51,5-3.52,10-7,15-10.44,2.18,6.43-2.16,11.56-3.69,17.17q-25.23,92.71-50.87,185.31-16.58,60-33.52,119.85c-1.95,6.93-5.32,11.81-14.09,10.93C995.55,1142,987.41,1142.66,979.33,1142.65Z" transform="translate(-427.96 -804.84)"/>
  <path class="cls-2" d="M1359.4,805.08h169.65c4.35,0,8.85-.67,13,.19,15.49,3.17,28.94,12.9,23,34.68-6.38,23.56-13.51,46.91-20.24,70.37-5.22,18.18-12,36.12-15.12,54.66-4.47,26.25-23.93,43.88-56.93,43.67-44.12-.28-88.24-.07-132.37-.07q-72.7,0-145.42,0c-13.41,0-13.16.24-16.93,13.52-10.49,37-21.35,73.86-31.68,110.88-1.9,6.83-4.42,10.15-12.25,9.84-16.13-.64-32.31,0-48.46-.27-7.71-.1-9-1.86-7.08-8.69,6.72-23.45,13.7-46.83,20.38-70.3q15.52-54.58,30.74-109.26c3.33-12,3.14-12.2,16.11-12.21q132.38-.09,264.74,0c16.16,0,32.34-.58,48.46.24,8,.4,11.33-3.8,13-9.77,4.49-15.85,8.45-31.85,12.39-47.85,3.19-13,3-13.12-10.84-13.12q-152,0-303.89,0c-17.88,0-17.78,0-12.65-17.52,3.59-12.29,6.61-24.76,10.32-37,3.58-11.85,3.82-11.92,16.73-11.93Q1271.76,805,1359.4,805.08Z" transform="translate(-427.96 -804.84)"/>
  <path class="cls-2" d="M490.14,1142.63c-8.68,0-17.37,0-26.05,0-4.78,0-6.79-2.49-6-6.92,1.39-7.81,2.63-15.71,4.78-23.33,20.37-72.09,41-144.11,61.37-216.21,7-24.61,13.48-49.35,20-74.08,4.23-16,4.91-16.72,21-16.82,13.65-.08,27.31-.33,40.94.1,7.46.24,9,3,6.9,10.78q-17.5,63.4-35.21,126.76-26,93.28-52.1,186.56c-3.61,13-3.42,13-17.06,13.17-6.2.07-12.41,0-18.61,0Z" transform="translate(-427.96 -804.84)"/>
  <path class="cls-3" d="M2084.45,1069.21c-5.88,2.5-9.43,7.75-13.89,11.89-19.47,18.07-38.79,36.3-58.23,54.4-1.15,1.07-3.45,2.51-4.25,2.06-1.92-1.08-.68-3.16-.19-4.93Q2030,1053.31,2052.08,974q20.16-72.27,40.48-144.51c1.62-5.76,4-11.32,6-17,8.06,2.08,7.82,10.18,10.93,15.62,9.7,16.9,16.17,35.53,27.56,51.57,20.7,26.59,32,58.16,46.71,87.91,3.36,6.8.57,13.71-5.15,18.36-30.78,25-55.42,56.68-87.44,80.36A14.2,14.2,0,0,1,2084.45,1069.21Z" transform="translate(-427.96 -804.84)"/>
  <path class="cls-4" d="M2238.61,966c-25.77-49.76-50.8-99.89-76.08-149.9a5.39,5.39,0,0,0-4.92-6.29c-2,0-1.92,3.78-1.5,6.16-6.77,21.11-10.89,43-19.06,63.69,0,5.88,3.81,10.25,6.22,15.13,11.66,23.62,23.05,47.4,35.47,70.62,4,7.54,3.62,12.42-2.85,17.42-22.59,17.49-41.48,38.91-62.14,58.44-9.81,9.26-22.14,15.92-29.3,27.94q-7.42,29.24-14.86,58.45c-1.68,2.85-1.75,5.62.38,8.29,13.38-11.88,27.07-23.44,40.09-35.7,38.35-36.14,76.43-72.58,114.65-108.86a87.69,87.69,0,0,1,9.84-8.46C2241.07,978.36,2242.83,974.14,2238.61,966Z" transform="translate(-427.96 -804.84)"/>
  <g>
    <path class="cls-5" d="M2181.29,1201.53a3.68,3.68,0,0,0-3.47-3.43c-6.81-.24-13.65.12-20.43-.36-7.51-.54-11.21,2.54-13,9.83-2.74,11.28-6.4,22.34-9.62,33.51-5.09,17.71-5.07,17.72,12.74,17.76a21.85,21.85,0,0,0,3.71,0c5.12-.92,14.31,2.6,14.45-3.53.19-8.67-9.23-4.35-14.39-4.7-6.25-.41-7.7-3.28-6.1-8.24,2.09-6.47,4.31-13,13.81-11.15,3.46.7,7.35-.15,10.93-.88a5.53,5.53,0,0,0,4.37-5.29c.16-3.22-2.2-4-4.84-4-3.72-.07-7.44,0-11.15-.07-6.85,0-6.47-3.46-4.37-8.4,1.89-4.41,4.24-7,9.53-6.54a80.69,80.69,0,0,0,14.82-.42A3.6,3.6,0,0,0,2181.29,1201.53Z" transform="translate(-427.96 -804.84)"/>
    <path class="cls-5" d="M1070.64,1198.08c-6.81-.3-13.67.19-20.44-.37s-10.06,2.44-11.75,8.72c-4,14.77-8.45,29.4-12.49,44.15-1.31,4.78-.52,8.65,6,8.28,3.09-.18,6.2,0,9.3,0h11.16c.62,0,1.24-.06,1.85-.1,2.74-.16,4.76-1.39,5-4.24.23-3.26-2.28-3.84-4.81-4-1.85-.14-3.72,0-5.58-.11-12.59-.76-12.08-.63-8.68-12.18,1.58-5.35,4.16-7,9.08-6.8,3.72.11,7.45-.17,11.16.05,5.87.35,8.17-4,8-8.07-.12-3.61-4.81-2.11-7.57-2.35-2.46-.22-5,0-7.44-.07-8.07-.36-8.68-1.85-5.62-9.8,1.32-3.41,3.1-5,6.59-5,5.57,0,11.16.06,16.7-.43a3.81,3.81,0,0,0,3-4.12A3.71,3.71,0,0,0,1070.64,1198.08Z" transform="translate(-427.96 -804.84)"/>
    <path class="cls-5" d="M1838.92,1198.2c-9.29-.22-18.58-.39-27.87-.19-3.43.08-5.19,2.59-5.82,6-2.84,15.64-10,30.21-11.51,46.2-2.62,2.65-5.9,5.32.19,7.76,7.93.29,15.86.64,23.79.83,3.61.09,8.34.48,8.79-4.13.55-5.68-4.69-4.12-7.94-4.29-4.27-.22-8.57.07-12.86.13q-.3-5.47-.61-11c2.46-5.44,5.65-9.12,12.69-8.36,4.71.51,10,1.7,14.26-2a9.29,9.29,0,0,0,2.49-4.6c.61-2.43-1.75-3.32-3.29-3.46-4.31-.39-8.69,0-13-.32-5.12-.39-6.85-4-4.81-8.87s5.48-6,10.33-5.94,10,1.33,14.6-1.17c1.39-.75,2.23-2.82,2.86-4.46C1841.37,1200,1839.75,1198.22,1838.92,1198.2Z" transform="translate(-427.96 -804.84)"/>
    <path class="cls-5" d="M1636.54,1197.84a23,23,0,0,0-3.71,0l0-.34c-6.73.41-13.49.62-20.18,1.42-1.27.15-2.63,2.47-3.3,4.06-1.15,2.73,1.52,2.55,3,3,11.35,3.48,11.43,3.48,8.67,13.66-2.4,8.85-5,17.66-7.48,26.47-.67,2.35-1.7,4.61-2.16,7-.5,2.57.24,4.86,3.22,5.49,2.57.54,5.46.12,6.42-2.33a160.18,160.18,0,0,0,4.86-15.7c2.63-9.42,5.27-18.83,7.59-28.33.81-3.32,2-5.27,5.67-6.07,4.63-1,13.75,3.15,12.36-5.52C1650.58,1195.11,1641.74,1198.7,1636.54,1197.84Z" transform="translate(-427.96 -804.84)"/>
    <path class="cls-5" d="M1006.32,1198.11c-11.74-.13-23.49-.18-35.23,0-2.52,0-5,1.26-4.69,4.44s2.85,3.7,5.29,3.53c9.73-.66,9.66,3.73,7,11.3-3.83,10.93-6.51,22.26-9.11,31.42-.71,5.1-1.41,8.54,2.52,9.55,3.67.94,5.85-1.87,6.82-4.82,3-9.28,6.76-18.52,8.26-28.07,1.88-12,4.31-21.72,19.7-19.9,1.27.15,3.28-1.74,2.92-4A3.68,3.68,0,0,0,1006.32,1198.11Z" transform="translate(-427.96 -804.84)"/>
    <path class="cls-5" d="M722.75,1197.87c-8.52.09-17,.38-25.55.59-2.74-.09-3.78,1.38-3.65,3.93a3.33,3.33,0,0,0-.45,2.84c-3.17,2-3.43,5-2.88,8.24a3.64,3.64,0,0,0-.61,3.49c-4.45,2.82-3.3,7.31-3.42,11.42a3.18,3.18,0,0,0-.48,3c-4.41,3-3.31,7.64-3.53,11.89-5.7,15.34-5.7,15.34,9.46,15.54a48.45,48.45,0,0,0,7.43-.06c4.49-.64,12.36,2.49,12.55-3.63.28-8.85-8.36-3.76-12.92-4.56s-8.79-.16-8.64-6.46c3.22-1.94,3.44-4.93,2.9-8.19a3.56,3.56,0,0,0,.71-3.12c5.84-2.19,11.94-1.16,17.94-1.44,2.75-.13,6.18,1.22,7.29-3,.4-1.18.8-2.36,1.19-3.54,1.48-.46,2-1.34,1.37-2.55a1.94,1.94,0,0,0-1.2-.87c-7.46-1.55-15.26.91-22.63-1.86l-.07-1.38c4-3,3.12-7.53,3.84-11.57,6.71-.17,13.42-.39,20.14-.48,2.71,0,4.72-.74,5.14-3.76S725.54,1197.84,722.75,1197.87Z" transform="translate(-427.96 -804.84)"/>
    <path class="cls-5" d="M1483.7,1197.88c-8.51.08-17,.35-25.51.55-2.8-.13-3.85,1.39-3.77,4a4.17,4.17,0,0,0-.41,2.64c-3.2,2-3.41,5.13-2.93,8.45a3.4,3.4,0,0,0-.56,3.29c-4.4,2.92-3.31,7.45-3.44,11.62a3.29,3.29,0,0,0-.44,2.87c-4.37,3.08-3.32,7.76-3.57,12a6.9,6.9,0,0,0-.32,2.43c-3.17,2.14-3.46,5.26-3,8.64.27,1.11.31,3.06.84,3.19,9.62,2.54,19.42,1.05,29.15.78,1.14,0,2.87-2.28,3.17-3.73.68-3.24-1.91-4-4.46-4.14-4.29-.18-8.59-.1-12.88-.19s-4.24-3.45-4.65-6.4c4.36-2.82,3.2-7.43,3.76-11.47,6.54-.34,13.09-.74,19.64-1,2.41-.09,4.8.1,5.4-3l1.17-3.58c1.48-.4,2-1.27,1.46-2.5a1.74,1.74,0,0,0-1.18-.85c-7.54-.61-15.09-1.17-22.63-1.75l-.12-1.72c4.14-2.85,3.08-7.43,3.88-11.4,6.71-.16,13.42-.36,20.13-.45,2.69,0,4.74-.7,5.1-3.75S1486.49,1197.85,1483.7,1197.88Z" transform="translate(-427.96 -804.84)"/>
    <path class="cls-5" d="M2030.32,1198.44c-2.17-1-5.18-1-6.76,1.11-1.35,1.86-1.82,4.4-2.49,6.7-4.47,15.24-8.81,30.52-13.39,45.74-.8,2.67-.91,5.21,1.59,6.27,2.91,1.23,7,.93,8-2.38,5.36-17.53,10.22-35.21,15.42-53.45C2032.05,1201.29,2031.58,1199,2030.32,1198.44Z" transform="translate(-427.96 -804.84)"/>
    <path class="cls-5" d="M858,1198.43c-3-1.16-6.12-.76-7.85,2.6a18.86,18.86,0,0,0-1.18,3.49c-4.57,15.85-9.2,31.67-13.62,47.56-.88,3.14-.33,6.15,4.11,6.66,3.2-.13,5.55-1.34,6.55-4.92q6.86-24.72,14-49.36C860.81,1201.73,860.71,1199.44,858,1198.43Z" transform="translate(-427.96 -804.84)"/>
    <path class="cls-5" d="M1407.83,1199.73c-7,3.61-9.62,10.67-13.34,16.86A4.74,4.74,0,0,0,1391,1221c-2,.44-3.3,1.4-3,3.67a3.27,3.27,0,0,0-1.25,2.64c-1.76,1.71-3.47,3.46-5.29,5.1s-2.86,4.49-5.88,3.15c-2.6-1.16-2.37-3.91-2.75-6.29-1.36-8.46-2.73-16.92-4.28-25.35-.31-1.66-1.44-3.16-2.19-4.73-1.51.83-3.9,1.32-4.39,2.56-3.58,9.08-10.39,16.73-11.94,26.69-3.22,1.37-3.54,4.29-3.87,7.2-3.43,1.14-3.67,4.05-3.88,7-1.67,1-3.07,2.13-2.79,4.34a4.08,4.08,0,0,0-.94,3.09c-1.66,1-3.1,2.1-2.76,4.34-.35,6.19,3.44,4.43,6.79,3.52,2.07-.18,3.29-1.06,2.82-3.36,1.93-3.58,5.42-6.53,4.65-11.22q1.82-3.81,3.64-7.62c3.7-.74,3-6.26,5.65-6.42,3.12-.2,4,3.71,5,6.51a8.48,8.48,0,0,1,.19,1.83c.7,7.16.14,18,6.36,19.2,5.54,1,10.19-9.38,14.93-15,2.32-2.74,3.74-6.24,5.57-9.4a4.06,4.06,0,0,0,3.42-4l.14.21c2.54-.17,3.21,1.77,4,3.55-.25,7.33-.65,14.66-.66,22,0,2.62,1.78,4.72,4.62,4.14,1.37-.28,3.29-2.09,3.46-3.4,1.49-11.45,3.92-22.86,3.07-34.5C1408.88,1213.51,1411.62,1206.37,1407.83,1199.73Z" transform="translate(-427.96 -804.84)"/>
    <path class="cls-5" d="M642.79,1200.93c-5.47-1.32-9.35,9.57-12.93,15.88-2.06.68-3.33,2-3.36,4.25l-.1.12c-1.92.37-3.3,1.17-2.88,3.46a3.45,3.45,0,0,0-1.39,2.83,5.18,5.18,0,0,0-3.47,4.46c-2,.53-3.22,1.71-3.15,3.92a8.41,8.41,0,0,1-1.15,1.41c-.46.35-1.47.83-1.57.7-3.56-4.31-4.4-9.47-5.2-14.85-1.18-7.95-2.06-16.07-6-23.37-7.43,5.23-8.75,14-12.37,21.39L589,1221c-3.65,1.27-3.77,4.31-3.74,7.43-3.65,1.26-3.77,4.3-3.74,7.42-3.65,1.3-3.81,4.31-3.69,7.47v0c-3.85,1.14-3.87,4.22-3.79,7.37-4.29,2.51-6.27,5,0,7.61l3.69-.53c2.51.12,3.55-1,3.06-3.52a4.73,4.73,0,0,0,1.08-3.12c2.07-.72,3.22-2,2.71-4.32a4.34,4.34,0,0,0,1-3c1.91-.8,3.22-2,2.69-4.28a4.67,4.67,0,0,0,1-3.16c1.9-.79,3.21-2,2.69-4.28a4,4,0,0,0,.84-3.41c2.36-.16,5.31-1,6,2.19,1.07,4.69.65,9.9,2.49,14.2s.22,11.6,5,12.48c5.16.94,6.39-6.1,9-10a4.47,4.47,0,0,0,3.47-4.28h0c2-.39,3.38-1.38,3.13-3.7a3.77,3.77,0,0,0,1.21-2.51,5.58,5.58,0,0,0,3.54-4.55,4.1,4.1,0,0,0,3.45-4l.1.29c6.34,1.82,1.86,7.5,3.9,10.85-.2,4.89-.62,9.78-.44,14.66a5.33,5.33,0,0,0,2.91,3.91c2.61.9,4.3-.65,5.29-3.35,4.15-11.27,2.48-23,2.74-34.55C644.82,1213.5,648.25,1202.25,642.79,1200.93Z" transform="translate(-427.96 -804.84)"/>
    <path class="cls-5" d="M447.68,1198.24a5.36,5.36,0,0,0-5.6,3.91c-4.74,16.42-9.23,32.91-13.75,49.39-.68,2.47-.61,5.32,1.86,6.49,3.37,1.6,6.33-.46,7.29-3.48,3.5-11,6.58-22.23,9.71-33.39,1.65-5.88,3.07-11.82,4.59-17.73C451.24,1200.86,450.85,1198.44,447.68,1198.24Z" transform="translate(-427.96 -804.84)"/>
    <path class="cls-5" d="M542,1200.72c-4.75-1.55-9.51,7.83-12.81,13.67a6.71,6.71,0,0,0-.4,1.78,5.47,5.47,0,0,0-3.5,4.53,4,4,0,0,0-3.29,4l-.07.09c-1.94.38-3.32,1.24-3,3.54a4.18,4.18,0,0,0-1.45,3.1c-3.45,1.37-4.66,7-8.56,6-2.84-.71-1.34-5.17-1.85-7.93-1.43-7.76-2.74-15.54-4.1-23.32.11-3.49,1.94-8.12-1.67-9.84-2-1-5.36,2.34-5.55,6-3.44,8.61-9.5,16-11.49,25.3-1.83.86-3.14,2.06-2.81,4.32a3.21,3.21,0,0,0-1,3c-1.83.92-3.12,2.17-2.79,4.43a3.21,3.21,0,0,0-.94,3c-1.82.92-3.11,2.18-2.79,4.43a3.44,3.44,0,0,0-1,3c-1.85.94-3.15,2.22-2.76,4.52-.65,1.9-.06,3.59,1.76,4.11,2.55.73,4.51-.45,5.58-2.94,1.92-1,3.16-2.49,3-4.82a3.4,3.4,0,0,0,.74-2.67c1.86-1,3.1-2.46,2.88-4.76a3.19,3.19,0,0,0,.83-2.73c1.87-1,3.12-2.41,2.9-4.7.67-1,1.36-2,2-3.07,1.27-2,2.29-5.58,3.83-5.82,3.14-.49,1.64,3.24,2.58,5,3.63,6.63,2.32,14.38,4.77,21.23,1.25,3.5,3.19,7,7.39,2.14,5.23-6,10.44-11.94,14-19.13a4.16,4.16,0,0,0,3.26-4c2-.53,3.45-1.57,3.52-3.86l0-.06h0l1.85-.11,1.83.25c-.21,7.94-.47,15.88-.61,23.82-.06,3.2.54,6.33,4.71,6,2.79-.22,3.67-2.57,3.87-5.16.91-11.49,2.35-23,2.6-34.49C543.66,1212.4,547.38,1202.49,542,1200.72Z" transform="translate(-427.96 -804.84)"/>
    <path class="cls-5" d="M805.27,1206.3l-.08-.11c0-2.35-1.23-3.59-3.58-3.73l0,0c-1.18-3.86-4.19-3.84-7.37-3.46-10-1.4-19.9-2.21-29.82.27-5.75,2-3.19,6.8-3.73,10.58a3.57,3.57,0,0,0-.44,2.83c-4.35,3-3.35,7.64-3.54,11.89-4.51,2.74-3.22,7.23-3.35,11.28a3.27,3.27,0,0,0-.49,3c-4.45,3-3.32,7.64-3.53,11.88a4.31,4.31,0,0,0-.3,2.67c-.16,0-.29.23-.41.64-.56.91-1.13,1.81-1.7,2.71l2.52,1c7.42,1.88,14.91,1.26,22.39.47a17.66,17.66,0,0,0,14.89-3.88c4.25-.51,6.61-3.47,8.79-6.69l2.91-3.18a5.12,5.12,0,0,0,3.48-4.65c3.7-1.33,3.73-4.44,3.67-7.59h0C810.79,1223.53,811.93,1214.88,805.27,1206.3Zm-25.81,40.43-.75-.23c-5.46-.54-10.87-.87-15.54,2.11h0a6.17,6.17,0,0,1-1.92-4.58,24.46,24.46,0,0,1,1.68-5,28.11,28.11,0,0,0,1.16-3.61,77.72,77.72,0,0,1,2.66-7.5,24.46,24.46,0,0,0,1-3.95,46.49,46.49,0,0,1,1.75-7.71,29.89,29.89,0,0,1,1.85-3.32,9.79,9.79,0,0,1,5.13-2.54c2.93-.23,5.91-.23,8.94-.22a18.24,18.24,0,0,1,5.91,1.19c.53.32,1,.69,1.57,1a29.93,29.93,0,0,1,2.45,2.83,33.8,33.8,0,0,1,1.45,3.65,18.41,18.41,0,0,1-.33,6.43c-.46,1.4-1,2.74-1.44,4.14-.81,1.88-1.71,3.68-2.59,5.49a36.56,36.56,0,0,0-1.73,3.7,26.92,26.92,0,0,0-1.37,3.9c0,.13,0,.26,0,.39C784.79,1242.12,781.27,1243,779.46,1246.73Z" transform="translate(-427.96 -804.84)"/>
    <path class="cls-5" d="M1983.35,1201.8a4.56,4.56,0,0,0-3.15,4.11c-1.93.56-3.19,1.67-3.11,3.87-3.76,6.17-10.76,10.18-12.07,18-8.84,5.82-9.24,5.76-10.19-2a52.66,52.66,0,0,1-.58-9.2c.29-5.73-2-10.86-3.66-16-.78-2.39-3.57-3-6.26-2.5-2.93.56-4,1.9-3,5,3,9.38,1,19.46,4.6,28.94,3.16,8.26-2.17,18.73,6.24,25.93,5.59-7.23,11.22-14.43,16.73-21.71.71-.93.81-2.3,1.2-3.47h0c5.49-3.48,7.57-9.42,10.62-14.66a5.26,5.26,0,0,0,3.45-4.51c1.84-.51,3.22-1.4,3-3.62a4.25,4.25,0,0,0,1.39-3.06c2.43-2.06,7-4.53,4.51-7.46C1990.14,1196,1985.72,1197.31,1983.35,1201.8Z" transform="translate(-427.96 -804.84)"/>
    <path class="cls-5" d="M1328.69,1195.3c-2.54-.54-4.25.72-4.9,3.28-2,.65-3.26,1.83-3.24,4l-.38-.2c-2.28.25-3.51,1.48-3.56,3.8l-.08.08c-2.3.18-3.51,1.37-3.47,3.72l-.14.17c-2.32.07-3.49,1.27-3.59,3.56l-.19.19c-2.19.07-3.43,1.06-3.29,3.38-1.7,2.4-4,3.31-5.55.4a83.69,83.69,0,0,1-4.64-11.81c-1.71-4.88-4-10.4-10.08-7.46-5.9,2.83-.63,7.43.55,11,4.36,13.26,10,26.39,1.26,40a4.47,4.47,0,0,0-.4,1.78c-.36,3-1.08,6.34,3.08,7.25,3.32.73,6.16-.36,7.26-3.86,2.73-8.69,5.3-17.44,7.94-26.17h0a4,4,0,0,0,3.58-3.86l.05-.06a3.61,3.61,0,0,0,3.5-3.74l.15-.16c2.18-.22,3.39-1.36,3.38-3.61l.24-.29c2.2-.16,3.41-1.19,3.1-3.53l4.87-6.54c3.3-1.64,6.15-3.66,6.74-7.66C1331.22,1197.18,1330.47,1195.68,1328.69,1195.3Z" transform="translate(-427.96 -804.84)"/>
    <path class="cls-5" d="M1577.4,1198.94l-.12-.11c-.83-4.15-2.15-3.46-3.7-.42-2.66,0-3.63,1.51-3.48,4a4.16,4.16,0,0,0-.48,2.85c-3.28,2-3.43,5-2.87,8.3-1.81,5.84-3.33,11.8-5.51,17.51-1.47,3.85-3.88,6.29-7.51,1.33q-9.78-13.41-19.94-26.55c-2.17-2.8-4-7.23-8-6.89-4.9.41-3.53,5.55-4.51,8.86-1.72,5.87-3.7,11.66-5.31,17.56-2.58,9.43-4.89,18.93-7.46,28.36-.51,1.88-.91,3.68,1.13,4.43,2.3.85,5,1,6.65-1.3a16.81,16.81,0,0,0,1.83-5q3.76-13.21,7.46-26.46c.48-1.73.93-4,3-3.83a7,7,0,0,1,4.45,2.52c7.59,9.68,14.82,19.64,22.54,29.21,4.87,6,7.84,5.69,9.65-.93,2.09-7.64,3.46-15.48,5.15-23.23,3.32-1.88,3.47-4.84,2.8-8.09.37-2.15.75-4.3,1.12-6.45,3.27-2,3.41-5.12,2.9-8.43a4,4,0,0,0,.55-3.22.37.37,0,0,0,.25-.16C1580.41,1201.21,1582,1199.76,1577.4,1198.94Z" transform="translate(-427.96 -804.84)"/>
    <path class="cls-5" d="M1760.31,1198.72h0c-6.27-5.76-12.62-5.08-19-.23a3.79,3.79,0,0,0-3.29,1.12c-2.45-.59-3.29.77-3.5,2.89-11.47,15.44-11.32,17.55,2,27.53,1,.74,2,1.38,3,2.15,8,6.41,8,6.42,2,18.11l-11,.89h0a4.49,4.49,0,0,0-2.75-.92c-1.67-4.21-2.7-10.06-8.69-3.45-5.36,2.56-4.56,5.22-.14,7.92a3.69,3.69,0,0,0,4,3.63c6.35,5.32,12.71,4.81,19.07,0,21.15-10.85,22.3-21.54,3.82-35.54-1.47-1.12-2.88-2.31-4.33-3.46-5.6-4.42-2.21-8.6.35-12.8h0l11-.8a4.23,4.23,0,0,0,2.71,1c3,3.89,5.79,5,8-.65.1-1.21.21-2.41.31-3.62C1764,1200,1762.7,1198.8,1760.31,1198.72Z" transform="translate(-427.96 -804.84)"/>
    <path class="cls-5" d="M2111.2,1202.2c-.18-2.42-1.6-3.45-3.95-3.44a4.37,4.37,0,0,0-2.65-.58c-6.92-5.12-13.82-4.84-20.71,0-8.33-.18-13.81,4.53-18.43,10.7-4.79,3-8,7.31-10.5,12.3-5.23,10.51-6.39,21.42.88,31s18,11.57,29.58,7.75l6.93-2.31h0c2.32.29,3.55-.82,4-3,3.14-1.49,4.94-4,2.14-6.7s-5.25,0-7.25,2.18l-6.37,1.08-11.08,0c-12.69-10.31-14-14.35-8.25-27.49a107.08,107.08,0,0,1,5.29-9.53h0l14.09-8.31,14.89,0a4.29,4.29,0,0,0,2.88.6c1,1.81,2.27,3.16,4.58,2.88,2.71,1.1,3.59-.48,4-2.72C2113.93,1205.12,2115,1203.61,2111.2,1202.2Z" transform="translate(-427.96 -804.84)"/>
    <path class="cls-5" d="M1901.55,1198.2c-2.44-.37-5-.3-7.46-.44-5.41,1.25-12.83-3.15-15.36,6-4.56,16.56-9.45,33-14,49.61a5.27,5.27,0,0,0,1.86,4.64c2.38,1.34,4.59-.12,6.3-2.12,4.3-5,2-12.18,5.71-17.42a46.68,46.68,0,0,0,2.63-4.82c.93,1.42,2,2.78,2.77,4.27,3.17,6,6.06,12.12,9.49,18,1.73,2.94,5.09,3.63,8.24,2.52,5.4-1.91,1.06-4.89.26-7.06a83.48,83.48,0,0,0-5.57-11.65c-2.94-5.24-3-8.82,3.58-11.51,6-2.48,9.15-8,11.13-14.15C1913.86,1205.77,1910.12,1199.46,1901.55,1198.2Zm-2,19.71c-3.18,4.11-6.12,5.93-11.42,6.44-1-.51-3.08-.94-3.89-2.21-2-3.13,2.44-14.8,6.12-15.84a8.65,8.65,0,0,1,9.83,3.3C1902.37,1212.53,1901.62,1215.24,1899.54,1217.91Z" transform="translate(-427.96 -804.84)"/>
    <path class="cls-5" d="M925,1216c-1.1-5.9.78-14.88-5.43-16.25-5-1.1-8.29,7.64-12.23,12.09-1.09,1.23-1.15,3.37-1.67,5.1-9.22,8.64-16.1,19.08-22.75,29.68h0a49.29,49.29,0,0,0-5,4.68c-1.4,1.71-3,3.81-1,6.08,1.76,2.11,4.19,1.66,6.44,1,3.23-1,4.2-3.73,4.68-6.71h0c1.76-1.7,3.39-3.54,5.28-5.07,7.1-5.75,15.41-2.86,23.09-2.47,6.06.3,3.74,6.59,4.84,10.34,1,3.57,3.55,4.64,6.94,4.23,4.29-.54,4.41-3.78,3.84-6.82C929.81,1239.83,927.24,1227.93,925,1216Zm-7.87,15.65c-1.45,6-6.86,4.18-10.57,3.73-5.9-.72-1.56-4.26-.84-6.38a68.33,68.33,0,0,1,3.91-8l0,0h0l0,0v0l0-.06c2.36.89,6.66-6.49,7.29,1.67C917.25,1225.54,917.85,1228.75,917.16,1231.61Z" transform="translate(-427.96 -804.84)"/>
    <path class="cls-5" d="M1244.94,1211.4c-.49-4.08-2-10.82-4.29-11.35-5.05-1.2-7.11,5.11-10,8.53-3.08,3.62-5.14,8.11-7.65,12.22a88.42,88.42,0,0,0-19,25.21c-1,.72-2.38,1.23-2.83,2.19-1.56,3.32-8.83,5.7-4.65,9.47,4.42,4,8.84-.54,11.61-5a7.49,7.49,0,0,0,.58-1.73h0c.55-.27,1.33-.4,1.61-.85,5.77-9.24,15-6.52,23.28-6.49,7.76,0,7.27,6.52,8.61,11.79.91,3.59,4.54,3.92,7.58,3,3.87-1.23,3.32-4.77,2.61-7.62A326.3,326.3,0,0,1,1244.94,1211.4Zm-9.65,23.87c-3.38.92-7.86,2-10.63-.91-3.51-3.62,2.3-6.16,2.23-9.62l0,0h.05a0,0,0,0,1,0,0l0,0c2.79-.65,3.18-3.4,4.7-5.17,1.73-2,4.42-2.66,5.62.63.81,2.23.67,4.82.9,7.26C1238.42,1230.51,1238.86,1234.3,1235.29,1235.27Z" transform="translate(-427.96 -804.84)"/>
    <polygon class="cls-5" points="798.93 419.86 798.93 419.86 798.93 419.86 798.93 419.86"/>
    <path class="cls-5" d="M1180.53,1198c-4.86-.42-9.8,0-14.69-.24a7.71,7.71,0,0,0-8.27,5.79c-1.21,4-1.42,8.32-2.06,12.51h0c-3.19,2.11-3.41,5.24-3,8.59h0a3.42,3.42,0,0,0-.51,3.12h0c-4.35,3-3.34,7.56-3.51,11.79h0a4.17,4.17,0,0,0-.39,2.69h0c-3.18,2-3.42,5.1-2.93,8.4h0a3.62,3.62,0,0,0-.54,3.35.43.43,0,0,0-.31.21c-1.8,1.24-4.21,2.51.52,3.35h0l3.69.73h0c2.75.15,3.84-1.31,3.79-3.87h0a4.54,4.54,0,0,0,.41-2.64h0c3.2-2.06,3.41-5.15,2.94-8.47h0a3.51,3.51,0,0,0,.54-3.25h0c3.19-1.73,3.11-4.95,3.61-7.91h-.08c6.29-1.69,13.7,2.6,19.14-3.57,8.66-.21,10.82-7.35,13.18-13.32C1196,1205.31,1191.57,1199,1180.53,1198Zm-2.14,22.94h0c-3.06.4-6.33.3-8.27,3.41h0l-5.41-.11q-.78-3.48-1.58-6.94h0c.54-1.07,1.17-2.1,1.6-3.21,2.35-6.17,5.63-10.95,13.08-6.75C1184.9,1211.35,1180.79,1216.3,1178.39,1221Z" transform="translate(-427.96 -804.84)"/>
  </g>
</svg>
