<svg id="Группа_1" data-name="Группа 1" xmlns="http://www.w3.org/2000/svg" width="1810.86" height="1032.43" viewBox="0 0 1810.86 1032.43">
  <defs>
    <style>
      .cls-1 {
        fill: #2c4699;
      }

      .cls-2 {
        fill: #54c1f0;
      }

      .cls-3 {
        fill: #06306f;
      }
    </style>
  </defs>
  <g>
    <path class="cls-1" d="M2003.1,1491.58c-.33-13-7.11-23.39-20.35-27.51a55.52,55.52,0,0,0-16.49-2.87q-34.24,0-68.47,0c-1,0-2,.09-3.48.17-10.87,50.14-21.72,100.16-32.64,150.52h31.82c4.3-17.56,7.23-35.53,12-52.93,14.12,0,27.6.15,41.09,0a49.38,49.38,0,0,0,31-11.33C1995.2,1533.19,2003.66,1514.37,2003.1,1491.58Zm-50.28,39.73a15.8,15.8,0,0,1-5.89,1.38c-11.39,0-22.78,0-34.17,0-.44,0-.88-.42-1.67-.82,3.1-14.68,5.57-29.61,9.69-44.34,12.8,0,25.2-.2,37.58.07,8.47.19,13.61,5.83,13.43,13.56C1971.54,1511.91,1964.8,1526.73,1952.82,1531.31Z" transform="translate(-419.11 -624.91)"/>
    <path class="cls-1" d="M2087.68,1590.89c4.29-19.89,9.39-39.61,13.13-59.59,2.74-14.62-2.59-25.79-19-30.54a77,77,0,0,0-42-.21c-12.66,3.49-23.21,10.41-29.82,22.56-2.37,4.34-3.22,9-5.82,14.24h27.45c2.81-2.06,2.37-4.43,3.27-6.26a19.09,19.09,0,0,1,14.91-10.86c4.06-.63,8.29-.25,12.44-.26,5.07,0,8.87,2,10.73,6.1.37,2.16-.61,3.24-.82,4.43-1.26,7-5.54,10.64-12.27,12-4.24.83-8.46,1.77-12.66,2.75-7.5,1.74-15.38.83-22.75,3.22-10.39,3.37-19.87,8.17-26,17.79-4.49,7-6.66,14.64-8.22,22.83a22.84,22.84,0,0,0,2.55,16.06,21,21,0,0,0,13.1,10.18,49.16,49.16,0,0,0,32.37-2.08c6.24-2.62,11.93-6.32,18.26-10.9-.48,4.18,1.24,6.76,1.8,9.53h31.51c.56-2.16.59-3.38-.26-4.56C2085.88,1602.18,2086.48,1596.42,2087.68,1590.89Zm-22.22-27.45c-3.06,18.46-12.15,29.1-32.53,30-4.77.21-8.49-1.6-11-5.62-.89-6.45-.76-12.43,4.68-17.11a20.41,20.41,0,0,1,9.37-5c3.75-.66,7.54-1.69,11.34-1.72a47.91,47.91,0,0,0,16.89-3.38A2.3,2.3,0,0,1,2065.46,1563.44Z" transform="translate(-419.11 -624.91)"/>
    <path class="cls-1" d="M2225.87,1500.38H2197l-40.44,78.83c-1.12-3.29-.48-6.54-1.24-9.42-2.12-8-1.6-16.31-2.42-24.42-.95-9.44-1.81-19-2.41-28.48-.35-5.44-.44-11.15-1.52-16.46h-32c-1.18,7.69,1.31,14.67,1.88,21.8.72,8.86,2.84,17.6,4.09,26.42,1.29,9.13,1.71,18.4,3.52,27.41,2.52,12.53,2.85,25.35,5.72,37.8a7.54,7.54,0,0,1-.27,3.82c-2.42,7.57-7.22,12.6-15.08,15-4.51,1.35-9.08,1-13.92,1.39-1.74,7.69-3.4,15-5.27,23.3,8-.12,14.59-.68,21.25-1.4,13.18-1.41,23.18-6.94,29.74-18.65,5.25-9.37,10.9-18.51,16.23-27.83,8.63-15.07,17.07-30.24,25.72-45.3,10.81-18.83,21.78-37.58,32.6-56.41C2224.49,1505.6,2226.43,1503.61,2225.87,1500.38Z" transform="translate(-419.11 -624.91)"/>
    <path class="cls-1" d="M1708.9,1494.94c2.27-.87,4.95-1.71,7.46-2.9,12.91-6.12,25.73-12.41,38.68-18.46,2.74-1.28,5.73-2.34,8.35-3.68,6.35-3.25,13.13-5.66,19.06-9.84,3.84-2.7,5.15-6.5,3.68-10-2.74-6.51-5.53-13.15-9.72-18.78a4,4,0,0,0-1.11.08c-3.74,1.61-7.66,2.91-11.14,5-3,1.74-5.94,1.67-9,1.46-3.77-.27-8.46-4.71-9-7.47V1423c4.76-7.69,13.72-8.19,20-13.25-4-7.51-5.31-16.66-13.59-21.6a12.08,12.08,0,0,0-8.14,1.1c-5.22,2.64-10.61,5-15.91,7.45-14.76,7-29.54,13.9-44.22,21-2.5,1.21-5.17,2-7.53,3.73-5.65,4.26-6.9,7.46-3.87,13.67,8,16.52,16.35,32.9,24.17,49.51C1699.64,1489.87,1702.89,1493.53,1708.9,1494.94Z" transform="translate(-419.11 -624.91)"/>
    <path class="cls-1" d="M1682,1506.85c-8-4.55-16.77-5.89-25.69-6.62-4.61-.37-9.16.51-13.75,1.12-13.64,1.84-25,7.6-33.5,18.35a27.14,27.14,0,0,0-6.14,16h16.59c-.34-2,1.14-3.23,1.84-4.88,3-7.12,8.51-11.86,15.92-13.23,8.88-1.65,18-1.84,26.73,1.29,2.86,1,5.68,2.59,6.94,5.19,1.61,4.92-1,9-1.25,13.31s-2.47,7.16-6.33,8.87c-5.95,2.63-12.34,3.08-18.7,3.56a137.18,137.18,0,0,0-32.23,6.07c-17.24,5.6-28.1,23.32-26.71,39.75.52,6.16,2.72,11.51,8.52,15.47,10.28,7,21.51,6.7,32.62,4.83,8.5-1.42,16.38-5.55,23.65-10.44,1.59-1.07,3.12-2.43,5.21-2.39,4.75,16.14,15.63,16,28.71,10.66l2.32-10.06c-3.22-2-7.22-1.41-10.81-4.72a17.53,17.53,0,0,1,0-3.69q7.56-34.24,15.21-68.48C1693.22,1517.61,1690.3,1511.57,1682,1506.85ZM1659.24,1583c-2.44,5.54-7.71,8.26-12.23,11.44-7,4.89-15.19,7-23.58,8a21.41,21.41,0,0,1-12.52-2.76c-4.42-2.33-7.38-8.16-6.48-12.83,1.71-9,7-15.1,15.45-18.33a55.41,55.41,0,0,1,11.76-3c11-1.62,22-2.88,33.54-6.43C1663.33,1567.59,1662.53,1575.59,1659.24,1583Z" transform="translate(-419.11 -624.91)"/>
    <path class="cls-1" d="M1779.4,1502c-16.89-4.1-32.91-1.88-47.6,8.1-11.57,7.87-17.1,18.67-17,32.55.07,7.31,3.1,12.64,9.82,16,7.81,3.92,16.21,5.86,24.52,8.21,6.57,1.85,13.61,2.14,19.62,5.89,4.2,2.62,6.69,7.33,5,11.69-1.91,5-4.48,9.61-9.64,12.51a32.23,32.23,0,0,1-10.74,3.7c-7.89,1.27-15.92,1.82-23.63-1.14-6.3-2.42-9.77-7.13-10.31-14-.16-2,.73-4.17-1.08-5.93h-15.39c-.3,1.08-.44,1.81-.7,2.51-4.88,13.32,3.12,28.3,16.79,32.09s26.67,3.27,40.13-.23c17-4.41,27.42-15.2,32.51-31.57,3-9.79-.66-19.37-9.26-24.46a48.6,48.6,0,0,0-17.1-6.28c-8.39-1.29-16.22-4.23-24.23-6.65-4.88-1.47-8.62-4.51-9.18-10.06,2.91-12.55,13.14-15.93,23.54-17.67,9.26-1.55,18.63-.46,24.15,7.64,1.43,3.63-.38,6.64,1.27,9h15.66C1802.94,1521.36,1794.81,1505.78,1779.4,1502Z" transform="translate(-419.11 -624.91)"/>
    <path class="cls-1" d="M1862.22,1519.89c1.25-5.6,2.43-10.88,3.77-16.9h-17.4c3.3-14.64,6.45-28.63,9.75-43.23-3.65,0-6.47-.19-9.26,0-3,.26-6.27-1.28-8.92,1.45-4.3,13.7-5.65,28.24-10.39,42.06h-14.42a105.16,105.16,0,0,0-3.8,16.77h14.26c-.16,2.83,0,4.7-.4,6.44-5.67,24.54-10.85,49.18-16,73.83a13.17,13.17,0,0,0,1.95,10.71,12.17,12.17,0,0,0,10.4,5.73c6.19,0,12.38,0,19.51,0,.63-5.83,3.57-10.71,2.64-16.74-5.62,1.22-10.91,2.44-15.71-2.87l16.56-77.31Z" transform="translate(-419.11 -624.91)"/>
    <path class="cls-1" d="M1593.42,1503.18h-17.58c1.34-6.57,2.22-12.34,3.73-18s5.82-8.56,12.1-8.79c2.31-.09,4.62,0,7.13,0a86.65,86.65,0,0,0,3.78-15.24c-6.93-.1-13.51-1.42-19.62.64-12.41,4.18-19.79,13.21-22.17,26.11a121.85,121.85,0,0,1-4,15.54h-14.2c-1.28,5.42-2.48,10.55-3.95,16.8h14.93c-6.61,30.84-13.08,61-19.62,91.48h18.17c6.66-30.83,13.24-61.3,19.87-92h17.55C1590.82,1514.32,1592,1509.19,1593.42,1503.18Z" transform="translate(-419.11 -624.91)"/>
    <path class="cls-1" d="M1740.68,1386.53c-2.18-2.29-3.63-4.09-5.36-5.57-1.92-1.63-2.15-4.86-5.5-5.48l-6.37,6c-2,.87-2.81-1.63-6.26-.53-2.21,2.41-5.47,6.13-8.89,9.68-3.25,3.36-6.9,6.35-10,9.87s-8.21,5.09-10.58,11.36c9.7-4.47,18.32-8,26.56-12.36C1722.79,1395,1732.07,1392.18,1740.68,1386.53Z" transform="translate(-419.11 -624.91)"/>
    <path class="cls-1" d="M1756.53,1434.2a8.67,8.67,0,0,0,5.17-.77c3.8-2,7.71-3.91,11.69-5.55,4.25-1.75,6.44-4.74,6.71-9.13a17.56,17.56,0,0,0-6.07-6.18c-7.74-.22-13.78,5.7-20.88,8.23C1749.48,1428.21,1749.56,1428.49,1756.53,1434.2Z" transform="translate(-419.11 -624.91)"/>
  </g>
  <g>
    <path class="cls-2" d="M1836.63,748.22l15-12c52.06-44.19,118.72-39.32,163.29,13.11,4.49,5.24,6.74,5.62,11.24,1.12,3-3.37,6.36-6,9.36-9.36,34.83-34.08,80.9-44.19,124-25.09,45.31,20.22,69.66,55.8,70,105.61.75,107.49.38,214.6.38,322.09,0,38.2-23.6,62.17-61.42,62.17-15,0-30-1.12-44.95.38-15.35,1.5-19.85-3.37-19.85-19.48.75-104.86.38-209.73.38-314.6V859.07c-.38-24.34-10.11-34.45-33.34-35.58-21-1.12-35.57,11.62-37.82,33-.38,4.87,0,10.12,0,15V1143c0,39.7-22.85,62.92-62.55,62.55-20.22-.38-47.56,9-59.17-4.12-10.11-11.24-3.37-37.83-3.37-57.68v-279c0-33-21.35-49.81-49.07-38.57-17.22,7.11-22.84,21-22.84,39,.37,86.89,0,173.4,0,260.29V1146c-1.13,36.33-24.35,59.17-60.3,59.55-15,.37-30-1.12-44.94.37-16.11,1.5-21-3-20.6-20.22.75-147.19.37-294.38.37-441.94,0-6.37.38-12.36,0-18.72-.75-8.24,2.62-10.87,10.86-10.87,34.46.38,68.54.38,103,0,8.61,0,12.73,2.25,12,11.61C1835.5,732.49,1836.25,738.48,1836.63,748.22Z" transform="translate(-419.11 -624.91)"/>
    <path class="cls-3" d="M1042.64,951.21v153.55c-.38,66.67-35.21,101.12-101.87,101.5-29.22,0-58.8.37-88,0-59.17-.75-102.62-40.08-105.61-99.25a1204.68,1204.68,0,0,1-.38-127.34c3-60.67,49.44-103.37,110.86-104.12,16.11-.37,32.59,0,48.69,0,15.73-.37,21.72-9.36,21.35-24.34,0-15-6.74-21.72-21.72-21q-25.29.56-50.56,0c-41.2-.75-64-23.22-63.67-63.67,0-16.48-7.49-38.58,3.37-48.32,9.36-8.24,30.71-3,46.81-3,42-.38,83.52,0,125.47,0,44.57,0,74.9,30.33,75.28,75.28C1043,843.72,1042.64,897.65,1042.64,951.21Zm-114.61,85V1017.5c0-38.2,0-38.2-38.2-36.71-19.1.75-29.59,10.49-30,30.34-.38,15.73-.38,31.09,0,46.82.37,27,12.36,34.08,51.31,35.2,28.84.75,14.23-19.47,16.85-30.71C929.53,1054.2,927.66,1044.84,928,1036.22Z" transform="translate(-419.11 -624.91)"/>
    <path class="cls-3" d="M1376,910.38c0,57.31.75,115-.37,172.29-.75,44.19-11.24,84.26-53.93,107.86a120.5,120.5,0,0,1-55.43,15c-43.07.75-86.14,0-129.21.75-10.49,0-12.74-3.75-12.36-13.11.75-15.73-.38-31.09.37-46.82.75-30,23.6-52.8,53.56-53.93,19.47-.75,38.58-.37,58.05,0,15.73,0,24.34-6.36,24.34-23.22,0-17.23-8.24-23.22-24-23.59-26.21-.75-52.43,3-78.27-4.5-44.57-13.11-77.15-50.18-78.28-96.25-2.24-73-.75-146.06-1.12-219.1,0-8.24,2.62-10.86,10.86-10.48,30.71.37,61,.75,91.76,0,13.48-.38,11.61,7.11,11.61,15.35V895.4c0,24,11.24,36.71,32.21,37.46,24.72.74,35.58-9.37,35.58-34.46,0-55.43.37-111.23-.38-166.66,0-13.11,3.38-16.86,16.48-16.48,27.34,1.12,55.06,1.5,82.4,0,15-.75,17.23,4.87,16.85,18C1375.59,792,1376,851.21,1376,910.38Z" transform="translate(-419.11 -624.91)"/>
    <path class="cls-3" d="M421.68,995.4V811.88c0-59.92,36.7-97.37,97-96.62,39.32.37,78.65-4.5,117.6,3,49.81,9.74,81.27,48.32,81.64,99.63.38,54.3,0,108.61,0,162.91,0,68.17-40.07,109.74-108.23,111.61-20.6.75-41.2.38-61.8,0-9.36-.37-13.48,2.62-13.11,12.74.75,15,.38,30,0,44.94-.75,32.21-23.59,55.43-55.43,55.8-18.72.38-42.32,7.87-54.3-3-11.24-10.11-3-34.08-3.37-52.06C421.3,1099.14,421.68,1047.09,421.68,995.4Zm113.1-91.76v35.58c0,42.32,0,42.32,42.32,38.58,18.36-1.5,27-10.49,27.34-28.84.38-21-.74-42.32.38-63.29,2.25-60.68-9-54.68-58.43-55.06-9,0-12,2.62-12,11.61C535.16,862.45,534.78,883,534.78,903.64Z" transform="translate(-419.11 -624.91)"/>
    <path class="cls-2" d="M1482,996.15c0-49.81-.37-100,.38-149.81,0-11.61-2.62-16.48-15.36-16.1-16.85.75-39.32,5.61-48.69-2.63-11.61-10.86-2.62-34.08-4.12-52.05v-3.75c0-17.6-5.61-38.2,1.88-51.31s30.33-4.87,46.44-9c31.83-8.24,55.8-26.59,75.28-52.06,13.48-17.22,30.33-29.58,52.06-33.7,11.61-2.25,18.72-.75,18,14.23-1.12,21,0,42.32-.37,63.67-.38,9,3,12,12,11.61,15-.38,30,.37,44.95-.38,9-.37,12,3,11.61,12-.38,30.71-.38,61,0,91.76,0,8.61-2.25,13.1-11.61,12-1.88-.37-3.75,0-5.62,0-16.48,1.5-39.33-7.49-47.94,3.75-8.24,10.48-3,32.21-3,49.06,0,101.87-.37,203.37.38,305.24,0,14.23-3.75,18.72-18,17.6-13.48-1.13-27.34,0-41.2-.38-40.45-1.49-67-28.83-67-69.28Z" transform="translate(-419.11 -624.91)"/>
  </g>
</svg>
