<?xml version="1.0" encoding="utf-8"?>
<!-- Generator: Adobe Illustrator 24.0.3, SVG Export Plug-In . SVG Version: 6.00 Build 0)  -->
<svg version="1.1" id="Layer_1" xmlns="http://www.w3.org/2000/svg" xmlns:xlink="http://www.w3.org/1999/xlink" x="0px" y="0px"
	 viewBox="0 0 200 200" style="enable-background:new 0 0 200 200;" xml:space="preserve">
<style type="text/css">
	.st0{fill:#696A6A;}
	.st1{fill:#66686C;}
	.st2{fill:#27803B;}
	.st3{fill:#E9661C;}
</style>
<g id="g24">
	<g id="g30" transform="translate(33.9766,61.0674)">
		<path id="path32" class="st0" d="M-18.42,60.71h1.29l-1.19,4.99c-0.18,0.74-0.14,1.3,0.1,1.67c0.24,0.37,0.7,0.56,1.36,0.56
			c0.66,0,1.2-0.19,1.62-0.56c0.42-0.37,0.72-0.93,0.9-1.67l1.19-4.99h1.3l-1.22,5.11c-0.27,1.11-0.74,1.94-1.42,2.49
			c-0.68,0.55-1.57,0.83-2.67,0.83c-1.1,0-1.86-0.28-2.27-0.82c-0.41-0.55-0.48-1.38-0.22-2.5L-18.42,60.71z"/>
	</g>
	<g id="g34" transform="translate(47.7734,43.3633)">
		<path id="path36" class="st0" d="M-25.82,86.62l2.04-8.54l3.88,5.02c0.1,0.14,0.21,0.29,0.31,0.45c0.1,0.16,0.21,0.34,0.32,0.54
			l1.36-5.69h1.2l-2.04,8.53l-3.97-5.11c-0.11-0.14-0.21-0.28-0.3-0.44c-0.09-0.15-0.18-0.31-0.25-0.48l-1.37,5.71H-25.82z"/>
	</g>
	<g id="g38" transform="translate(67.2119,43.3633)">
		<path id="path40" class="st0" d="M-36.24,86.62l1.97-8.21h1.3l-1.97,8.21H-36.24z"/>
	</g>
	<g id="g42" transform="translate(74.0488,43.3633)">
		<path id="path44" class="st0" d="M-39.9,86.62l1.97-8.21h4.47l-0.27,1.13h-3.17l-0.49,2.05h3.17l-0.28,1.17h-3.17l-0.92,3.86
			H-39.9z"/>
	</g>
	<g id="g46" transform="translate(86.7686,43.3633)">
		<path id="path48" class="st0" d="M-46.72,86.62l1.97-8.21h1.3l-1.97,8.21H-46.72z"/>
	</g>
	<g id="g50" transform="translate(93.6055,43.3633)">
		<path id="path52" class="st0" d="M-50.39,86.62l1.97-8.21h4.47l-0.27,1.13h-3.17l-0.49,2.06h3.17L-45,82.77h-3.17l-0.64,2.65h3.17
			l-0.29,1.2H-50.39z"/>
	</g>
	<g id="g54" transform="translate(109.8818,45.9639)">
		<path id="path56" class="st0" d="M-59.11,82.82h1.09c0.6,0,1.06-0.04,1.38-0.12c0.32-0.08,0.61-0.22,0.88-0.42
			c0.37-0.26,0.67-0.6,0.92-0.99c0.25-0.39,0.43-0.85,0.56-1.38c0.12-0.52,0.16-0.98,0.1-1.38c-0.06-0.4-0.2-0.73-0.44-0.99
			c-0.18-0.19-0.42-0.33-0.71-0.42c-0.3-0.08-0.78-0.12-1.45-0.12h-0.47h-0.47L-59.11,82.82z M-60.7,84.02l1.97-8.21h1.75
			c1.14,0,1.93,0.06,2.37,0.18c0.44,0.12,0.8,0.32,1.08,0.59c0.38,0.36,0.62,0.83,0.72,1.4c0.1,0.57,0.07,1.22-0.11,1.95
			c-0.17,0.73-0.45,1.38-0.82,1.94c-0.37,0.56-0.84,1.03-1.39,1.39c-0.42,0.28-0.86,0.47-1.34,0.59c-0.48,0.12-1.18,0.18-2.13,0.18
			h-0.35H-60.7z"/>
	</g>
	<g id="g58" transform="translate(136.8799,53.666)">
		<path id="path60" class="st0" d="M-73.59,71.54h0.33c0.72,0,1.22-0.08,1.5-0.24c0.28-0.16,0.47-0.44,0.57-0.85
			c0.1-0.44,0.05-0.75-0.16-0.93c-0.21-0.18-0.67-0.27-1.35-0.27h-0.33L-73.59,71.54z M-73.93,72.63l-0.88,3.69h-1.22l1.97-8.21
			h1.97c0.58,0,1,0.03,1.26,0.1c0.26,0.06,0.47,0.17,0.64,0.32c0.21,0.19,0.34,0.45,0.41,0.77c0.06,0.32,0.05,0.68-0.04,1.07
			c-0.09,0.39-0.25,0.75-0.47,1.08c-0.22,0.33-0.48,0.59-0.78,0.77c-0.24,0.15-0.51,0.26-0.8,0.32c-0.29,0.06-0.73,0.1-1.31,0.1
			h-0.26H-73.93z"/>
	</g>
	<g id="g62" transform="translate(148.4458,50.3164)">
		<path id="path64" class="st0" d="M-79.79,76.44h2.23l-0.37-1.87c-0.02-0.12-0.03-0.26-0.05-0.41C-77.99,74-78,73.83-78,73.64
			c-0.09,0.18-0.17,0.35-0.26,0.5c-0.09,0.15-0.17,0.3-0.25,0.43L-79.79,76.44z M-76.96,79.67l-0.4-2.11h-3.17l-1.44,2.11h-1.37
			l5.92-8.54l1.83,8.54H-76.96z"/>
	</g>
	<g id="g66" transform="translate(161.5161,43.3633)">
		<path id="path68" class="st0" d="M-86.79,86.62l0.9-3.76l-1.63-4.45h1.37l1.01,2.79c0.02,0.07,0.05,0.16,0.08,0.28
			c0.03,0.12,0.06,0.24,0.09,0.38c0.08-0.13,0.17-0.26,0.25-0.37c0.08-0.12,0.17-0.22,0.25-0.32l2.38-2.75h1.3l-3.82,4.45l-0.9,3.76
			H-86.79z"/>
	</g>
	<g id="g70" transform="translate(188.2803,52.1074)">
		<path id="path72" class="st0" d="M-101.14,73.82c0-0.06,0.02-0.24,0.06-0.53c0.03-0.24,0.05-0.44,0.07-0.6
			c-0.08,0.19-0.17,0.37-0.27,0.56c-0.11,0.19-0.23,0.38-0.36,0.57l-3.14,4.38l-1.03-4.47c-0.04-0.18-0.08-0.36-0.1-0.53
			c-0.02-0.17-0.04-0.34-0.04-0.51c-0.04,0.17-0.1,0.35-0.17,0.54c-0.07,0.19-0.15,0.39-0.25,0.59l-1.83,4.04h-1.2l3.94-8.56
			l1.12,5.18c0.02,0.08,0.04,0.22,0.07,0.41c0.03,0.19,0.06,0.43,0.1,0.71c0.13-0.24,0.32-0.53,0.58-0.9
			c0.07-0.1,0.12-0.17,0.15-0.22l3.55-5.18l-0.11,8.56h-1.21L-101.14,73.82z"/>
	</g>
	<g id="g74" transform="translate(192.9419,43.3633)">
		<path id="path76" class="st0" d="M-103.64,86.62l1.97-8.21h4.47l-0.27,1.13h-3.17l-0.49,2.06h3.17l-0.28,1.17h-3.17l-0.64,2.65
			h3.17l-0.29,1.2H-103.64z"/>
	</g>
	<g id="g78" transform="translate(205.791,43.3633)">
		<path id="path80" class="st0" d="M-110.53,86.62l2.04-8.54l3.88,5.02c0.1,0.14,0.21,0.29,0.31,0.45c0.1,0.16,0.21,0.34,0.32,0.54
			l1.36-5.69h1.2l-2.04,8.53l-3.97-5.11c-0.11-0.14-0.21-0.28-0.3-0.44c-0.09-0.15-0.18-0.31-0.25-0.48l-1.37,5.71H-110.53z"/>
	</g>
	<g id="g82" transform="translate(234.4102,58.625)">
		<path id="path84" class="st0" d="M-125.87,64.28l-1.69,7.08h-1.3l1.69-7.08h-2.13l0.27-1.13h5.54l-0.27,1.13H-125.87z"/>
	</g>
	<g id="g86" transform="translate(237.3213,46.9072)">
		<path id="path88" class="st0" d="M-127.43,81.43l1.16-0.49c0.01,0.37,0.12,0.65,0.34,0.84c0.22,0.19,0.53,0.29,0.94,0.29
			c0.39,0,0.72-0.11,1-0.33c0.28-0.22,0.47-0.52,0.55-0.89c0.12-0.48-0.17-0.91-0.86-1.29c-0.1-0.06-0.17-0.1-0.22-0.12
			c-0.78-0.44-1.27-0.84-1.48-1.2c-0.21-0.36-0.25-0.79-0.13-1.31c0.16-0.67,0.51-1.21,1.05-1.63c0.54-0.42,1.17-0.62,1.89-0.62
			c0.59,0,1.06,0.12,1.4,0.35c0.34,0.23,0.54,0.57,0.58,1.01l-1.15,0.54c-0.1-0.26-0.23-0.45-0.39-0.57
			c-0.16-0.12-0.37-0.18-0.62-0.18c-0.35,0-0.65,0.09-0.9,0.28c-0.25,0.19-0.41,0.44-0.49,0.75c-0.12,0.49,0.22,0.95,1.03,1.38
			c0.06,0.03,0.11,0.06,0.14,0.08c0.7,0.37,1.16,0.74,1.37,1.1c0.21,0.36,0.25,0.8,0.12,1.34c-0.19,0.78-0.57,1.4-1.16,1.85
			s-1.29,0.69-2.1,0.69c-0.68,0-1.2-0.16-1.56-0.48C-127.26,82.49-127.44,82.03-127.43,81.43"/>
	</g>
	<g id="g90" transform="translate(258.0459,43.3633)">
		<path id="path92" class="st0" d="M-138.54,86.62l1.97-8.21h1.3l-1.97,8.21H-138.54z"/>
	</g>
	<g id="g94" transform="translate(264.8828,43.3633)">
		<path id="path96" class="st0" d="M-142.21,86.62l2.04-8.54l3.88,5.02c0.1,0.14,0.21,0.29,0.31,0.45s0.21,0.34,0.32,0.54l1.36-5.69
			h1.2l-2.04,8.53l-3.97-5.11c-0.11-0.14-0.21-0.28-0.3-0.44c-0.09-0.15-0.18-0.31-0.25-0.48l-1.37,5.71H-142.21z"/>
	</g>
	<g id="g98" transform="translate(293.502,58.625)">
		<path id="path100" class="st0" d="M-157.55,64.28l-1.7,7.08h-1.3l1.69-7.08h-2.13l0.27-1.13h5.54l-0.27,1.13H-157.55z"/>
	</g>
	<g id="g102" transform="translate(296.5557,43.3633)">
		<path id="path104" class="st0" d="M-159.18,86.62l1.97-8.21h4.47l-0.27,1.13h-3.17l-0.49,2.06h3.17l-0.28,1.17h-3.17l-0.64,2.65
			h3.17l-0.29,1.2H-159.18z"/>
	</g>
	<g id="g106" transform="translate(314.6416,53.5225)">
		<path id="path108" class="st0" d="M-168.88,71.75h0.24c0.69,0,1.17-0.08,1.43-0.25c0.27-0.16,0.45-0.46,0.55-0.88
			c0.11-0.45,0.06-0.77-0.13-0.96c-0.2-0.19-0.62-0.28-1.28-0.28h-0.24L-168.88,71.75z M-169.21,72.79l-0.88,3.68h-1.22l1.97-8.21
			h1.82c0.53,0,0.94,0.04,1.21,0.11c0.28,0.07,0.5,0.19,0.67,0.35c0.2,0.2,0.33,0.45,0.39,0.77c0.06,0.31,0.04,0.66-0.05,1.03
			c-0.16,0.66-0.44,1.17-0.83,1.55c-0.4,0.37-0.91,0.6-1.53,0.67l1.86,3.74h-1.47l-1.78-3.68H-169.21z"/>
	</g>
	<g id="g110" transform="translate(322.9258,43.3633)">
		<path id="path112" class="st0" d="M-173.32,86.62l1.97-8.21h4.47l-0.27,1.13h-3.17l-0.49,2.05h3.17l-0.28,1.17h-3.17l-0.92,3.86
			H-173.32z"/>
	</g>
	<g id="g114" transform="translate(340.0449,50.3164)">
		<path id="path116" class="st0" d="M-182.5,76.44h2.23l-0.37-1.87c-0.02-0.12-0.03-0.26-0.05-0.41c-0.01-0.16-0.02-0.33-0.03-0.52
			c-0.09,0.18-0.17,0.35-0.26,0.5c-0.09,0.15-0.17,0.3-0.25,0.43L-182.5,76.44z M-179.67,79.67l-0.4-2.11h-3.17l-1.44,2.11h-1.37
			l5.92-8.54l1.83,8.54H-179.67z"/>
	</g>
	<g id="g118" transform="translate(367.3555,56.7627)">
		<path id="path120" class="st0" d="M-197.14,67.01c-0.29-0.32-0.62-0.56-0.99-0.72c-0.37-0.16-0.78-0.24-1.24-0.24
			c-0.87,0-1.66,0.29-2.34,0.86c-0.69,0.58-1.14,1.32-1.36,2.24c-0.21,0.89-0.12,1.62,0.28,2.19c0.4,0.58,1,0.86,1.81,0.86
			c0.47,0,0.95-0.09,1.42-0.26c0.47-0.17,0.94-0.43,1.42-0.78l-0.36,1.51c-0.41,0.26-0.84,0.45-1.28,0.58
			c-0.44,0.13-0.9,0.19-1.39,0.19c-0.61,0-1.15-0.1-1.62-0.31c-0.47-0.21-0.85-0.51-1.15-0.91c-0.3-0.39-0.49-0.86-0.57-1.39
			c-0.08-0.53-0.05-1.1,0.09-1.7c0.14-0.6,0.39-1.17,0.72-1.7c0.34-0.53,0.75-0.99,1.24-1.39c0.49-0.4,1.02-0.71,1.59-0.92
			c0.56-0.21,1.14-0.31,1.74-0.31c0.47,0,0.9,0.07,1.29,0.21c0.39,0.14,0.76,0.35,1.09,0.64L-197.14,67.01z"/>
	</g>
	<g id="g122" transform="translate(367.627,43.3633)">
		<path id="path124" class="st0" d="M-197.28,86.62l1.97-8.21h4.47l-0.27,1.13h-3.17l-0.49,2.06h3.17l-0.28,1.17h-3.17l-0.64,2.65
			h3.17l-0.29,1.2H-197.28z"/>
	</g>
	<g id="g126" transform="translate(316.4629,76.4951)">
		<path id="path128" class="st1" d="M-169.86,38.12h-8.95l12.44-44.93h8.95L-169.86,38.12z"/>
	</g>
	<g id="g130" transform="translate(306.4521,170.2881)">
		<path id="path132" class="st1" d="M-164.49-99.18c-0.62-0.85-1.58-1.29-2.88-1.29h-49.19l-2.44,8.8h8.95v-0.01h35.8l-2.6,9.4
			h-35.8l0-0.02h-8.95l-7.43,26.81h8.95l4.98-17.99h40.24c1.26,0,2.44-0.43,3.55-1.29c1.11-0.86,1.84-1.92,2.19-3.18l4.98-18
			C-163.75-97.25-163.88-98.33-164.49-99.18"/>
	</g>
	<g id="g134" transform="translate(156.1196,82.541)">
		<path id="path136" class="st1" d="M-83.9,29.27c-0.49,1.78-2.11,3.01-3.96,3.01h-46.16c-1.26,0-2.19-0.43-2.81-1.29
			c-0.61-0.86-0.75-1.92-0.39-3.18l11.26-40.54h8.95l-10.06,36.21h35.82l10.06-36.21h8.95L-83.9,29.27z"/>
	</g>
	<g id="g138" transform="translate(376.5859,173.1689)">
		<path id="path140" class="st2" d="M-202.09-103.4l11.33,22.52l-23.81,22.52L-202.09-103.4z"/>
	</g>
	<g id="g142" transform="translate(359.4717,173.1689)">
		<path id="path144" class="st3" d="M-192.91-103.4l11.32,22.52l-23.82,22.52L-192.91-103.4z"/>
	</g>
</g>
</svg>
